<svg width="117" height="95" viewBox="0 0 117 95" fill="none" xmlns="http://www.w3.org/2000/svg">
<path d="M116.02 48.1334C116.02 53.2914 104.209 55.527 76.2525 57.4727C47.519 57.4727 0.305664 53.2914 0.305664 48.1334C0.305664 42.9755 47.519 38.7942 76.2525 38.7942C105.555 40.6102 116.02 42.9755 116.02 48.1334Z" fill="white"/>
<path d="M1.4265 34.494C1.10321 33.0406 2.88426 32.071 3.92951 33.1313L19.7409 49.1713H4.69124L1.4265 34.494Z" fill="white"/>
<path d="M1.4265 61.7731C1.10321 63.2265 2.88426 64.1961 3.92951 63.1358L19.7409 47.0958H4.69124L1.4265 61.7731Z" fill="white"/>
<path d="M51.9709 12.9623C51.0054 9.45092 55.313 6.92834 57.903 9.48837L88.6018 39.832H59.3589L51.9709 12.9623Z" fill="white"/>
<rect x="58.6113" y="12.5925" width="9.86711" height="5.96675" fill="white"/>
<rect x="66.0859" y="19.8564" width="9.86711" height="5.96675" fill="white"/>
<path d="M51.9709 81.7482C51.0054 85.2595 55.313 87.7821 57.903 85.2221L88.6018 54.8785H59.3589L51.9709 81.7482Z" fill="white"/>
<rect width="9.86711" height="5.96675" transform="matrix(1 0 0 -1 58.6113 82.1179)" fill="white"/>
<rect width="9.86711" height="5.96675" transform="matrix(1 0 0 -1 66.0859 74.854)" fill="white"/>
</svg>
