<svg width="750" height="307" viewBox="0 0 750 307" fill="none" xmlns="http://www.w3.org/2000/svg">
<path d="M496.143 69.2604C496.143 74.4444 484.272 76.6914 456.174 78.6469C427.295 78.6469 379.843 74.4444 379.843 69.2604C379.843 64.0764 427.295 59.874 456.174 59.874C485.625 61.6991 496.143 64.0764 496.143 69.2604Z" fill="white"/>
<path d="M380.97 55.5519C380.645 54.0912 382.435 53.1166 383.486 54.1823L399.377 70.3034H384.251L380.97 55.5519Z" fill="white"/>
<path d="M380.97 82.9689C380.645 84.4297 382.435 85.4042 383.486 84.3385L399.377 68.2175H384.251L380.97 82.9689Z" fill="white"/>
<path d="M431.77 33.9114C430.799 30.3823 435.129 27.847 437.732 30.42L468.586 60.9169H439.195L431.77 33.9114Z" fill="white"/>
<path d="M438.444 33.5397H448.361V39.5366H438.444V33.5397Z" fill="white"/>
<path d="M445.956 40.8403H455.873V46.8372H445.956V40.8403Z" fill="white"/>
<path d="M431.77 103.045C430.799 106.574 435.129 109.109 437.732 106.536L468.586 76.0395H439.195L431.77 103.045Z" fill="white"/>
<path d="M438.444 103.417H448.361V97.4198H438.444V103.417Z" fill="white"/>
<path d="M445.956 96.1161H455.873V90.1192H445.956V96.1161Z" fill="white"/>
<path d="M122.606 106.341C109.264 123.527 90.947 132.121 67.6549 132.121C47.981 132.121 31.8687 125.902 19.3181 113.464C6.76749 101.027 0.492188 85.3102 0.492188 66.3147C0.492188 54.5556 3.37544 43.701 9.14193 33.751C15.0215 23.8009 23.1059 15.9992 33.3951 10.3458C43.6844 4.69234 54.7651 1.86563 66.6373 1.86563C78.6226 1.86563 89.3075 4.18353 98.6922 8.81935C108.19 13.3421 116.105 20.0131 122.437 28.8325L111.243 37.4822C99.4837 23.2356 84.9544 16.1123 67.6549 16.1123C53.5213 16.1123 41.3099 21.0873 31.0207 31.0373C20.8445 40.9874 15.7564 53.1988 15.7564 67.6715C15.7564 82.0312 20.7315 94.0731 30.6815 103.797C40.7446 113.408 53.7475 118.213 69.6901 118.213C85.6328 118.213 99.4837 111.373 111.243 97.6912L122.606 106.341Z" fill="white"/>
<path d="M253.62 129.068H238.187L219.021 87.5151H167.801L148.806 129.068H132.694L191.376 0H195.786L253.62 129.068ZM212.407 72.7596L193.581 30.8677L174.586 72.7596H212.407Z" fill="white"/>
<path d="M371.195 4.91848L317.092 132.121H313.191L259.935 4.91848H275.539L315.226 100.405L355.591 4.91848H371.195Z" fill="white"/>
<path d="M575.252 1.86563C587.351 1.86563 598.488 4.74888 608.664 10.5154C618.84 16.1688 626.812 24.0271 632.578 34.0902C638.458 44.1533 641.397 55.1209 641.397 66.9931C641.397 78.7522 638.514 89.6634 632.748 99.7265C626.981 109.79 619.066 117.704 609.003 123.471C598.94 129.237 587.972 132.121 576.1 132.121C564.341 132.121 553.374 129.294 543.197 123.64C533.021 117.874 525.05 110.016 519.283 100.066C513.517 90.0026 510.634 79.0915 510.634 67.3323C510.634 55.4601 513.517 44.4925 519.283 34.4294C525.05 24.2532 532.908 16.2819 542.858 10.5154C552.921 4.74888 563.719 1.86563 575.252 1.86563ZM575.761 117.874C589.895 117.874 601.823 113.069 611.547 103.458C621.384 93.8469 626.303 81.8051 626.303 67.3323C626.303 52.8596 621.328 40.7047 611.378 30.8677C601.541 21.0308 589.669 16.1123 575.761 16.1123C561.514 16.1123 549.586 21.0873 539.975 31.0373C530.477 40.8743 525.728 52.9161 525.728 67.1627C525.728 81.2963 530.647 93.2816 540.484 103.119C550.321 112.955 562.08 117.874 575.761 117.874Z" fill="white"/>
<path d="M749.289 129.068H729.954L678.225 74.1164V129.068H663.3V4.91848H678.225V49.0152L725.035 4.91848H745.049L685.179 60.7178L749.289 129.068Z" fill="white"/>
<path d="M289.403 243.229C289.064 263.356 283.185 279.016 271.765 290.209C260.458 301.403 245.533 307 226.989 307C205.733 307 188.772 300.499 176.109 287.496C163.445 274.38 157.113 259.059 157.113 241.533C157.113 224.008 163.445 208.856 176.109 196.08C188.772 183.19 205.111 176.745 225.124 176.745C235.978 176.745 246.042 178.78 255.313 182.851C264.698 186.808 273.856 192.914 282.789 201.168L271.595 211.853C264.698 205.182 257.235 200.094 249.207 196.589C241.18 192.97 232.926 191.161 224.445 191.161C215.965 191.161 207.542 193.423 199.175 197.945C190.808 202.468 184.25 208.574 179.501 216.262C174.752 223.951 172.377 232.262 172.377 241.194C172.377 255.102 177.579 267.256 187.981 277.659C198.496 287.948 211.612 293.093 227.329 293.093C238.975 293.093 249.038 289.927 257.518 283.595C265.998 277.15 271.199 268.387 273.121 257.306H234.452V243.229H289.403Z" fill="white"/>
<path d="M392.195 303.947H373.877L330.12 247.3H325.032V303.947H310.446V179.798H335.886C349.455 179.798 358.783 180.42 363.871 181.663C368.959 182.794 373.369 184.773 377.1 187.6C380.831 190.426 383.771 194.101 385.919 198.624C388.068 203.033 389.142 207.952 389.142 213.379C389.142 223.668 385.637 231.922 378.626 238.141C371.616 244.247 361.496 247.3 348.267 247.3L392.195 303.947ZM325.032 233.053H344.875C354.825 233.166 362.175 231.696 366.924 228.643C371.673 225.478 374.047 220.503 374.047 213.718C374.047 206.821 371.729 201.846 367.093 198.793C362.458 195.627 355.221 194.045 345.384 194.045H325.032V233.053Z" fill="white"/>
<path d="M425.678 303.947H411.092V179.798H425.678V303.947Z" fill="white"/>
<path d="M512.614 303.947H451.048V179.798H465.804V289.87H512.614V303.947Z" fill="white"/>
<path d="M590.956 303.947H529.39V179.798H544.145V289.87H590.956V303.947Z" fill="white"/>
</svg>
