<svg width="117" height="95" viewBox="0 0 117 95" fill="none" xmlns="http://www.w3.org/2000/svg">
<path d="M116.677 48.2204C116.677 53.3783 104.867 55.6139 76.9097 57.5596C48.1762 57.5596 0.962891 53.3783 0.962891 48.2204C0.962891 43.0624 48.1762 38.8811 76.9097 38.8811C106.212 40.6971 116.677 43.0624 116.677 48.2204Z" fill="#D29763"/>
<path d="M2.08372 34.5809C1.76043 33.1275 3.54149 32.1579 4.58673 33.2182L20.3981 49.2582H5.34847L2.08372 34.5809Z" fill="#D29763"/>
<path d="M2.08372 61.86C1.76043 63.3134 3.54149 64.2831 4.58673 63.2227L20.3981 47.1827H5.34847L2.08372 61.86Z" fill="#D29763"/>
<path d="M52.6281 13.0492C51.6626 9.53783 55.9702 7.01526 58.5602 9.57528L89.2591 39.9189H60.0162L52.6281 13.0492Z" fill="#D29763"/>
<rect x="59.2686" y="12.6794" width="9.86711" height="5.96675" fill="#D29763"/>
<rect x="66.7432" y="19.9434" width="9.86711" height="5.96675" fill="#D29763"/>
<path d="M52.6281 81.8351C51.6626 85.3464 55.9702 87.869 58.5602 85.309L89.2591 54.9654H60.0162L52.6281 81.8351Z" fill="#D29763"/>
<rect width="9.86711" height="5.96675" transform="matrix(1 0 0 -1 59.2686 82.2048)" fill="#D29763"/>
<rect width="9.86711" height="5.96675" transform="matrix(1 0 0 -1 66.7432 74.9409)" fill="#D29763"/>
</svg>
