<svg width="750" height="308" viewBox="0 0 750 308" fill="none" xmlns="http://www.w3.org/2000/svg">
<path d="M496.143 69.9528C496.143 75.1368 484.272 77.3837 456.174 79.3393C427.295 79.3393 379.843 75.1368 379.843 69.9528C379.843 64.7688 427.295 60.5663 456.174 60.5663C485.625 62.3915 496.143 64.7688 496.143 69.9528Z" fill="#222222"/>
<path d="M380.97 56.2443C380.645 54.7835 382.435 53.809 383.486 54.8747L399.377 70.9957H384.251L380.97 56.2443Z" fill="#222222"/>
<path d="M380.97 83.6613C380.645 85.1221 382.435 86.0966 383.486 85.0309L399.377 68.9099H384.251L380.97 83.6613Z" fill="#222222"/>
<path d="M431.77 34.6038C430.799 31.0747 435.129 28.5394 437.732 31.1123L468.586 61.6093H439.195L431.77 34.6038Z" fill="#222222"/>
<path d="M438.444 34.2321H448.361V40.229H438.444V34.2321Z" fill="#222222"/>
<path d="M445.956 41.5327H455.873V47.5296H445.956V41.5327Z" fill="#222222"/>
<path d="M431.77 103.737C430.799 107.266 435.129 109.802 437.732 107.229L468.586 76.7319H439.195L431.77 103.737Z" fill="#222222"/>
<path d="M438.444 104.109H448.361V98.1122H438.444V104.109Z" fill="#222222"/>
<path d="M445.956 96.8085H455.873V90.8116H445.956V96.8085Z" fill="#222222"/>
<path d="M122.606 107.033C109.264 124.22 90.947 132.813 67.6549 132.813C47.981 132.813 31.8687 126.594 19.3181 114.157C6.76749 101.719 0.492188 86.0026 0.492188 67.0071C0.492188 55.248 3.37544 44.3934 9.14193 34.4433C15.0215 24.4933 23.1059 16.6916 33.3951 11.0382C43.6844 5.38473 54.7651 2.55801 66.6373 2.55801C78.6226 2.55801 89.3075 4.87592 98.6922 9.51173C108.19 14.0345 116.105 20.7055 122.437 29.5249L111.243 38.1746C99.4837 23.928 84.9544 16.8047 67.6549 16.8047C53.5213 16.8047 41.3099 21.7797 31.0207 31.7297C20.8445 41.6797 15.7564 53.8911 15.7564 68.3639C15.7564 82.7236 20.7315 94.7654 30.6815 104.489C40.7446 114.1 53.7475 118.906 69.6901 118.906C85.6328 118.906 99.4837 112.065 111.243 98.3836L122.606 107.033Z" fill="#222222"/>
<path d="M253.62 129.76H238.187L219.021 88.2075H167.801L148.806 129.76H132.694L191.376 0.692383H195.786L253.62 129.76ZM212.407 73.452L193.581 31.5601L174.586 73.452H212.407Z" fill="#222222"/>
<path d="M371.195 5.61086L317.092 132.813H313.191L259.935 5.61086H275.539L315.226 101.097L355.591 5.61086H371.195Z" fill="#222222"/>
<path d="M575.252 2.55801C587.351 2.55801 598.488 5.44126 608.664 11.2078C618.84 16.8612 626.812 24.7195 632.578 34.7826C638.458 44.8457 641.397 55.8133 641.397 67.6855C641.397 79.4446 638.514 90.3558 632.748 100.419C626.981 110.482 619.066 118.397 609.003 124.163C598.94 129.93 587.972 132.813 576.1 132.813C564.341 132.813 553.373 129.986 543.197 124.333C533.021 118.566 525.05 110.708 519.283 100.758C513.517 90.695 510.634 79.7838 510.634 68.0247C510.634 56.1525 513.517 45.1849 519.283 35.1218C525.05 24.9456 532.908 16.9743 542.858 11.2078C552.921 5.44126 563.719 2.55801 575.252 2.55801ZM575.761 118.566C589.895 118.566 601.823 113.761 611.547 104.15C621.384 94.5393 626.303 82.4975 626.303 68.0247C626.303 53.5519 621.328 41.3971 611.378 31.5601C601.541 21.7231 589.669 16.8047 575.761 16.8047C561.514 16.8047 549.586 21.7797 539.975 31.7297C530.477 41.5667 525.728 53.6085 525.728 67.8551C525.728 81.9887 530.647 93.9739 540.484 103.811C550.321 113.648 562.08 118.566 575.761 118.566Z" fill="#222222"/>
<path d="M749.289 129.76H729.954L678.225 74.8088V129.76H663.3V5.61086H678.225V49.7076L725.035 5.61086H745.049L685.179 61.4102L749.289 129.76Z" fill="#222222"/>
<path d="M289.403 243.922C289.064 264.048 283.185 279.708 271.765 290.902C260.458 302.095 245.533 307.692 226.989 307.692C205.733 307.692 188.772 301.191 176.109 288.188C163.445 275.072 157.113 259.751 157.113 242.226C157.113 224.7 163.445 209.549 176.109 196.772C188.772 183.882 205.111 177.437 225.124 177.437C235.978 177.437 246.042 179.473 255.313 183.543C264.698 187.5 273.856 193.606 282.789 201.86L271.595 212.545C264.698 205.874 257.235 200.786 249.207 197.281C241.18 193.663 232.926 191.854 224.445 191.854C215.965 191.854 207.542 194.115 199.175 198.638C190.808 203.16 184.25 209.266 179.501 216.955C174.752 224.644 172.377 232.954 172.377 241.886C172.377 255.794 177.579 267.949 187.981 278.351C198.496 288.64 211.612 293.785 227.329 293.785C238.975 293.785 249.038 290.619 257.518 284.287C265.998 277.842 271.199 269.079 273.121 257.999H234.452V243.922H289.403Z" fill="#222222"/>
<path d="M392.195 304.64H373.877L330.12 247.992H325.032V304.64H310.446V180.49H335.886C349.455 180.49 358.783 181.112 363.871 182.356C368.959 183.487 373.369 185.465 377.1 188.292C380.831 191.119 383.771 194.793 385.919 199.316C388.068 203.726 389.142 208.644 389.142 214.072C389.142 224.361 385.637 232.615 378.626 238.834C371.616 244.939 361.496 247.992 348.267 247.992L392.195 304.64ZM325.032 233.746H344.875C354.825 233.859 362.175 232.389 366.924 229.336C371.673 226.17 374.047 221.195 374.047 214.411C374.047 207.514 371.729 202.539 367.093 199.486C362.458 196.32 355.221 194.737 345.384 194.737H325.032V233.746Z" fill="#222222"/>
<path d="M425.678 304.64H411.092V180.49H425.678V304.64Z" fill="#222222"/>
<path d="M512.614 304.64H451.048V180.49H465.804V290.562H512.614V304.64Z" fill="#222222"/>
<path d="M590.956 304.64H529.39V180.49H544.145V290.562H590.956V304.64Z" fill="#222222"/>
</svg>
