<svg width="713" height="404" viewBox="0 0 713 404" fill="none" xmlns="http://www.w3.org/2000/svg">
<path d="M14.738 105.454V103.318H15.668V108.622H14.738V106.486H7.74805V105.454H14.738ZM7.60405 111.035C7.60405 110.527 7.71805 110.075 7.94605 109.679C8.17405 109.287 8.48205 108.979 8.87005 108.755C9.26205 108.531 9.70405 108.419 10.196 108.419C10.688 108.419 11.132 108.531 11.528 108.755C11.924 108.979 12.238 109.287 12.47 109.679C12.702 110.075 12.818 110.527 12.818 111.035C12.818 111.539 12.702 111.985 12.47 112.373C12.238 112.765 11.924 113.071 11.528 113.291C11.132 113.511 10.688 113.621 10.196 113.621C9.70405 113.621 9.26205 113.511 8.87005 113.291C8.48205 113.071 8.17405 112.765 7.94605 112.373C7.71805 111.985 7.60405 111.539 7.60405 111.035ZM8.49805 111.035C8.49805 111.355 8.57205 111.633 8.72005 111.869C8.86805 112.109 9.07005 112.295 9.32605 112.427C9.58605 112.559 9.87805 112.625 10.202 112.625C10.526 112.625 10.818 112.559 11.078 112.427C11.338 112.295 11.544 112.109 11.696 111.869C11.848 111.633 11.924 111.355 11.924 111.035C11.924 110.711 11.848 110.429 11.696 110.189C11.544 109.949 11.338 109.761 11.078 109.625C10.818 109.493 10.526 109.427 10.202 109.427C9.87805 109.427 9.58605 109.493 9.32605 109.625C9.07005 109.761 8.86805 109.949 8.72005 110.189C8.57205 110.429 8.49805 110.711 8.49805 111.035ZM11.438 118.024L7.74805 116.77V115.69L12.674 114.352V115.462L8.88805 116.356L12.578 117.592L12.578 118.456L8.88805 119.68L12.674 120.58V121.696L7.74805 120.358V119.278L11.438 118.024ZM12.818 125.478C12.818 125.802 12.75 126.116 12.614 126.42C12.478 126.728 12.262 126.98 11.966 127.176C11.674 127.376 11.292 127.476 10.82 127.476H7.74805V126.42H10.616C11.104 126.42 11.458 126.306 11.678 126.078C11.902 125.85 12.014 125.556 12.014 125.196C12.014 124.96 11.946 124.732 11.81 124.512C11.678 124.296 11.494 124.118 11.258 123.978C11.026 123.838 10.762 123.768 10.466 123.768H7.74805V122.724H12.674V123.768H11.798C11.934 123.804 12.082 123.902 12.242 124.062C12.402 124.222 12.538 124.426 12.65 124.674C12.762 124.922 12.818 125.19 12.818 125.478ZM12.818 130.689C12.818 130.945 12.792 131.183 12.74 131.403C12.688 131.627 12.626 131.819 12.554 131.979C12.482 132.143 12.418 132.259 12.362 132.327L11.702 131.913C11.774 131.833 11.854 131.689 11.942 131.481C12.034 131.273 12.08 131.041 12.08 130.785C12.08 130.505 12.024 130.267 11.912 130.071C11.804 129.875 11.646 129.777 11.438 129.777C11.23 129.777 11.064 129.877 10.94 130.077C10.82 130.281 10.72 130.553 10.64 130.893C10.576 131.165 10.49 131.419 10.382 131.655C10.274 131.895 10.124 132.089 9.93205 132.237C9.74405 132.385 9.49205 132.459 9.17605 132.459C8.88805 132.459 8.64205 132.399 8.43805 132.279C8.23805 132.159 8.07605 131.997 7.95205 131.793C7.83205 131.589 7.74405 131.361 7.68805 131.109C7.63205 130.857 7.60405 130.601 7.60405 130.341C7.60405 130.037 7.63605 129.763 7.70005 129.519C7.76005 129.275 7.83205 129.069 7.91605 128.901C8.00405 128.737 8.08005 128.617 8.14405 128.541L8.88805 128.955C8.78805 129.059 8.68205 129.229 8.57005 129.465C8.45805 129.705 8.40205 129.977 8.40205 130.281C8.40205 130.617 8.47205 130.889 8.61205 131.097C8.75605 131.305 8.94205 131.409 9.17005 131.409C9.34205 131.409 9.48005 131.359 9.58405 131.259C9.68805 131.159 9.77205 131.025 9.83605 130.857C9.90005 130.689 9.95605 130.505 10.004 130.305C10.048 130.113 10.106 129.925 10.178 129.741C10.25 129.561 10.342 129.395 10.454 129.243C10.57 129.095 10.71 128.977 10.874 128.889C11.042 128.801 11.238 128.757 11.462 128.757C11.746 128.757 11.988 128.847 12.188 129.027C12.392 129.207 12.548 129.443 12.656 129.735C12.764 130.027 12.818 130.345 12.818 130.689ZM12.818 136.459C12.818 136.783 12.75 137.097 12.614 137.401C12.478 137.709 12.262 137.961 11.966 138.157C11.674 138.357 11.292 138.457 10.82 138.457H7.74805V137.401H10.616C11.104 137.401 11.458 137.289 11.678 137.065C11.902 136.845 12.014 136.555 12.014 136.195C12.014 135.955 11.946 135.725 11.81 135.505C11.678 135.285 11.494 135.103 11.258 134.959C11.026 134.819 10.762 134.749 10.466 134.749H7.74805V133.693H16.004V134.749H11.798C11.934 134.785 12.082 134.881 12.242 135.037C12.402 135.197 12.538 135.401 12.65 135.649C12.762 135.897 12.818 136.167 12.818 136.459ZM7.74805 139.982H12.674V141.026H7.74805V139.982ZM14.36 140.516C14.36 140.328 14.426 140.166 14.558 140.03C14.694 139.898 14.856 139.832 15.044 139.832C15.232 139.832 15.394 139.898 15.53 140.03C15.666 140.166 15.734 140.328 15.734 140.516C15.734 140.64 15.702 140.754 15.638 140.858C15.574 140.966 15.49 141.052 15.386 141.116C15.286 141.18 15.172 141.212 15.044 141.212C14.856 141.212 14.694 141.144 14.558 141.008C14.426 140.872 14.36 140.708 14.36 140.516ZM5.25205 143.678V142.64H12.674V143.696H11.75C11.874 143.732 12.02 143.832 12.188 143.996C12.356 144.16 12.502 144.38 12.626 144.656C12.754 144.936 12.818 145.256 12.818 145.616C12.818 146.072 12.708 146.476 12.488 146.828C12.272 147.184 11.968 147.462 11.576 147.662C11.188 147.866 10.732 147.968 10.208 147.968C9.68405 147.968 9.22605 147.864 8.83405 147.656C8.44605 147.448 8.14405 147.164 7.92805 146.804C7.71205 146.448 7.60405 146.04 7.60405 145.58C7.60405 145.208 7.67405 144.882 7.81405 144.602C7.95405 144.326 8.11205 144.108 8.28805 143.948C8.46405 143.792 8.60405 143.702 8.70805 143.678H5.25205ZM10.208 146.936C10.564 146.936 10.872 146.862 11.132 146.714C11.392 146.57 11.594 146.378 11.738 146.138C11.882 145.898 11.954 145.638 11.954 145.358C11.954 145.05 11.88 144.77 11.732 144.518C11.588 144.266 11.384 144.066 11.12 143.918C10.86 143.77 10.556 143.696 10.208 143.696C9.86005 143.696 9.55405 143.77 9.29005 143.918C9.03005 144.066 8.82805 144.266 8.68405 144.518C8.54005 144.77 8.46805 145.05 8.46805 145.358C8.46805 145.638 8.53805 145.898 8.67805 146.138C8.82205 146.378 9.02405 146.57 9.28405 146.714C9.54405 146.862 9.85205 146.936 10.208 146.936ZM15.668 152.074V154.84C15.668 155.268 15.578 155.656 15.398 156.004C15.222 156.356 14.962 156.636 14.618 156.844C14.278 157.056 13.862 157.162 13.37 157.162C12.882 157.162 12.478 157.064 12.158 156.868C11.838 156.676 11.596 156.444 11.432 156.172C11.272 155.9 11.184 155.648 11.168 155.416L7.74805 157.378V156.214L11.096 154.378V153.1H7.74805V152.074H15.668ZM11.858 153.1V154.48C11.858 154.952 11.976 155.342 12.212 155.65C12.448 155.958 12.826 156.112 13.346 156.112C13.866 156.112 14.24 155.958 14.468 155.65C14.696 155.346 14.81 154.958 14.81 154.486V153.1H11.858ZM7.60405 160.872C7.60405 160.42 7.71205 160.014 7.92805 159.654C8.14405 159.298 8.44605 159.016 8.83405 158.808C9.22605 158.604 9.68405 158.502 10.208 158.502C10.732 158.502 11.188 158.604 11.576 158.808C11.968 159.016 12.272 159.298 12.488 159.654C12.708 160.014 12.818 160.42 12.818 160.872C12.818 161.236 12.754 161.556 12.626 161.832C12.502 162.108 12.356 162.328 12.188 162.492C12.02 162.656 11.874 162.75 11.75 162.774H16.004V163.824H7.74805V162.792H8.70805C8.57205 162.748 8.41805 162.638 8.24605 162.462C8.07405 162.29 7.92405 162.068 7.79605 161.796C7.66805 161.524 7.60405 161.216 7.60405 160.872ZM8.46805 161.112C8.46805 161.416 8.54005 161.694 8.68405 161.946C8.82805 162.198 9.03005 162.398 9.29005 162.546C9.55405 162.698 9.86005 162.774 10.208 162.774C10.556 162.774 10.86 162.698 11.12 162.546C11.384 162.398 11.588 162.198 11.732 161.946C11.88 161.694 11.954 161.416 11.954 161.112C11.954 160.832 11.882 160.572 11.738 160.332C11.594 160.092 11.392 159.898 11.132 159.75C10.872 159.606 10.564 159.534 10.208 159.534C9.85205 159.534 9.54405 159.606 9.28405 159.75C9.02405 159.898 8.82205 160.092 8.67805 160.332C8.53805 160.572 8.46805 160.832 8.46805 161.112ZM14.906 170.574C14.906 170.242 14.838 169.952 14.702 169.704C14.57 169.46 14.414 169.254 14.234 169.086C14.058 168.922 13.896 168.796 13.748 168.708C13.604 168.624 13.524 168.578 13.508 168.57L13.904 167.664C13.94 167.672 14.026 167.71 14.162 167.778C14.302 167.846 14.464 167.952 14.648 168.096C14.832 168.24 15.012 168.424 15.188 168.648C15.368 168.872 15.516 169.142 15.632 169.458C15.752 169.778 15.812 170.15 15.812 170.574C15.812 171.006 15.752 171.38 15.632 171.696C15.512 172.012 15.344 172.272 15.128 172.476C14.912 172.68 14.656 172.832 14.36 172.932C14.064 173.032 13.742 173.082 13.394 173.082C13.058 173.082 12.714 173.002 12.362 172.842C12.01 172.682 11.664 172.474 11.324 172.218C10.988 171.962 10.67 171.686 10.37 171.39C10.074 171.098 9.80605 170.814 9.56605 170.538C9.32605 170.266 9.12805 170.03 8.97205 169.83C8.82005 169.634 8.72005 169.506 8.67205 169.446V173.016H7.74805V167.844H8.59405C8.69005 167.968 8.83605 168.154 9.03205 168.402C9.23205 168.654 9.46605 168.938 9.73405 169.254C10.002 169.57 10.292 169.89 10.604 170.214C10.916 170.538 11.234 170.838 11.558 171.114C11.886 171.39 12.206 171.612 12.518 171.78C12.834 171.952 13.13 172.038 13.406 172.038C13.958 172.038 14.346 171.91 14.57 171.654C14.794 171.402 14.906 171.042 14.906 170.574ZM9.50005 175.265C9.42805 175.289 9.33605 175.335 9.22405 175.403C9.11205 175.475 9.00005 175.573 8.88805 175.697C8.78005 175.821 8.68805 175.977 8.61205 176.165C8.53605 176.353 8.49805 176.579 8.49805 176.843C8.49805 177.375 8.66805 177.791 9.00805 178.091C9.35205 178.391 9.80405 178.539 10.364 178.535C10.884 178.531 11.286 178.393 11.57 178.121C11.854 177.849 11.996 177.487 11.996 177.035C11.996 176.755 11.944 176.509 11.84 176.297C11.74 176.089 11.618 175.919 11.474 175.787C11.33 175.659 11.194 175.569 11.066 175.517L11.372 174.611L15.668 175.289V179.237H14.744V176.177L12.278 175.805C12.314 175.825 12.378 175.893 12.47 176.009C12.566 176.129 12.654 176.297 12.734 176.513C12.818 176.729 12.86 176.991 12.86 177.299C12.86 177.699 12.77 178.071 12.59 178.415C12.414 178.759 12.144 179.037 11.78 179.249C11.42 179.461 10.964 179.569 10.412 179.573C9.86005 179.573 9.37205 179.465 8.94805 179.249C8.52805 179.037 8.19805 178.729 7.95805 178.325C7.72205 177.921 7.60405 177.439 7.60405 176.879C7.60405 176.467 7.65605 176.111 7.76005 175.811C7.86805 175.515 8.00205 175.267 8.16205 175.067C8.32205 174.867 8.48205 174.711 8.64205 174.599C8.80605 174.487 8.94405 174.409 9.05605 174.365L9.50005 175.265ZM11.702 180.626C12.406 180.626 13.016 180.71 13.532 180.878C14.048 181.05 14.474 181.278 14.81 181.562C15.15 181.85 15.402 182.17 15.566 182.522C15.73 182.878 15.812 183.244 15.812 183.62C15.812 183.996 15.73 184.362 15.566 184.718C15.402 185.074 15.15 185.392 14.81 185.672C14.474 185.956 14.048 186.18 13.532 186.344C13.016 186.512 12.406 186.596 11.702 186.596C10.986 186.596 10.368 186.512 9.84805 186.344C9.33205 186.18 8.90805 185.956 8.57605 185.672C8.24805 185.392 8.00405 185.074 7.84405 184.718C7.68405 184.362 7.60405 183.996 7.60405 183.62C7.60405 183.244 7.68405 182.878 7.84405 182.522C8.00405 182.17 8.24805 181.85 8.57605 181.562C8.90805 181.278 9.33205 181.05 9.84805 180.878C10.368 180.71 10.986 180.626 11.702 180.626ZM11.702 181.676C10.994 181.676 10.404 181.764 9.93205 181.94C9.46405 182.116 9.11405 182.35 8.88205 182.642C8.65005 182.938 8.53405 183.264 8.53405 183.62C8.53405 183.976 8.65005 184.3 8.88205 184.592C9.11405 184.884 9.46405 185.118 9.93205 185.294C10.404 185.47 10.994 185.558 11.702 185.558C12.402 185.558 12.986 185.47 13.454 185.294C13.926 185.118 14.282 184.884 14.522 184.592C14.762 184.3 14.882 183.976 14.882 183.62C14.882 183.264 14.762 182.938 14.522 182.642C14.282 182.35 13.926 182.116 13.454 181.94C12.986 181.764 12.402 181.676 11.702 181.676Z" fill="black"/>
<path d="M292.724 195.468C293.216 195.468 293.642 195.4 294.002 195.264C294.366 195.128 294.624 194.996 294.776 194.868L295.226 195.75C295.046 195.91 294.732 196.072 294.284 196.236C293.84 196.4 293.306 196.482 292.682 196.482C292.098 196.482 291.556 196.378 291.056 196.17C290.556 195.962 290.118 195.672 289.742 195.3C289.37 194.928 289.078 194.494 288.866 193.998C288.658 193.502 288.554 192.966 288.554 192.39C288.554 191.814 288.658 191.276 288.866 190.776C289.074 190.276 289.364 189.84 289.736 189.468C290.112 189.092 290.55 188.8 291.05 188.592C291.554 188.38 292.098 188.274 292.682 188.274C293.306 188.274 293.84 188.356 294.284 188.52C294.732 188.684 295.046 188.846 295.226 189.006L294.776 189.888C294.624 189.756 294.366 189.624 294.002 189.492C293.642 189.356 293.216 189.288 292.724 189.288C292.276 189.288 291.866 189.364 291.494 189.516C291.122 189.668 290.798 189.884 290.522 190.164C290.25 190.44 290.038 190.766 289.886 191.142C289.738 191.518 289.664 191.928 289.664 192.372C289.664 192.82 289.738 193.234 289.886 193.614C290.038 193.99 290.25 194.318 290.522 194.598C290.798 194.874 291.122 195.088 291.494 195.24C291.866 195.392 292.276 195.468 292.724 195.468ZM300.39 196.338V195.378C300.358 195.478 300.264 195.616 300.108 195.792C299.956 195.968 299.746 196.128 299.478 196.272C299.214 196.412 298.902 196.482 298.542 196.482C298.086 196.482 297.672 196.374 297.3 196.158C296.932 195.942 296.638 195.64 296.418 195.252C296.202 194.86 296.094 194.402 296.094 193.878C296.094 193.354 296.202 192.898 296.418 192.51C296.638 192.118 296.932 191.814 297.3 191.598C297.672 191.378 298.086 191.268 298.542 191.268C298.898 191.268 299.206 191.332 299.466 191.46C299.73 191.588 299.94 191.736 300.096 191.904C300.256 192.072 300.35 192.216 300.378 192.336V191.412H301.41V196.338H300.39ZM297.126 193.878C297.126 194.234 297.204 194.542 297.36 194.802C297.516 195.062 297.718 195.264 297.966 195.408C298.218 195.548 298.486 195.618 298.77 195.618C299.074 195.618 299.346 195.546 299.586 195.402C299.826 195.258 300.016 195.056 300.156 194.796C300.296 194.532 300.366 194.226 300.366 193.878C300.366 193.53 300.296 193.226 300.156 192.966C300.016 192.702 299.826 192.498 299.586 192.354C299.346 192.206 299.074 192.132 298.77 192.132C298.486 192.132 298.218 192.204 297.966 192.348C297.718 192.492 297.516 192.694 297.36 192.954C297.204 193.214 297.126 193.522 297.126 193.878ZM303.891 196.338H302.841V188.082H303.891V196.338ZM307.747 198.972C307.359 198.972 307.007 198.932 306.691 198.852C306.379 198.772 306.105 198.658 305.869 198.51C305.637 198.366 305.451 198.196 305.311 198L305.995 197.346C306.071 197.45 306.173 197.56 306.301 197.676C306.433 197.796 306.611 197.898 306.835 197.982C307.059 198.066 307.351 198.108 307.711 198.108C308.063 198.108 308.361 198.032 308.605 197.88C308.849 197.732 309.035 197.53 309.163 197.274C309.291 197.018 309.355 196.73 309.355 196.41V196.248H310.375V196.476C310.375 197.02 310.257 197.476 310.021 197.844C309.789 198.216 309.475 198.496 309.079 198.684C308.683 198.876 308.239 198.972 307.747 198.972ZM309.355 196.338V195.378C309.323 195.478 309.229 195.616 309.073 195.792C308.921 195.968 308.711 196.128 308.443 196.272C308.179 196.412 307.867 196.482 307.507 196.482C307.051 196.482 306.637 196.374 306.265 196.158C305.897 195.942 305.603 195.64 305.383 195.252C305.167 194.86 305.059 194.402 305.059 193.878C305.059 193.354 305.167 192.898 305.383 192.51C305.603 192.118 305.897 191.814 306.265 191.598C306.637 191.378 307.051 191.268 307.507 191.268C307.863 191.268 308.171 191.332 308.431 191.46C308.695 191.588 308.905 191.736 309.061 191.904C309.221 192.072 309.315 192.216 309.343 192.336V191.412H310.375V196.338H309.355ZM306.091 193.878C306.091 194.234 306.169 194.542 306.325 194.802C306.481 195.062 306.683 195.264 306.931 195.408C307.183 195.548 307.451 195.618 307.735 195.618C308.039 195.618 308.311 195.546 308.551 195.402C308.791 195.258 308.981 195.056 309.121 194.796C309.261 194.532 309.331 194.226 309.331 193.878C309.331 193.53 309.261 193.226 309.121 192.966C308.981 192.702 308.791 192.498 308.551 192.354C308.311 192.206 308.039 192.132 307.735 192.132C307.451 192.132 307.183 192.204 306.931 192.348C306.683 192.492 306.481 192.694 306.325 192.954C306.169 193.214 306.091 193.522 306.091 193.878ZM315.777 196.338V195.378C315.745 195.478 315.651 195.616 315.495 195.792C315.343 195.968 315.133 196.128 314.865 196.272C314.601 196.412 314.289 196.482 313.929 196.482C313.473 196.482 313.059 196.374 312.687 196.158C312.319 195.942 312.025 195.64 311.805 195.252C311.589 194.86 311.481 194.402 311.481 193.878C311.481 193.354 311.589 192.898 311.805 192.51C312.025 192.118 312.319 191.814 312.687 191.598C313.059 191.378 313.473 191.268 313.929 191.268C314.285 191.268 314.593 191.332 314.853 191.46C315.117 191.588 315.327 191.736 315.483 191.904C315.643 192.072 315.737 192.216 315.765 192.336V191.412H316.797V196.338H315.777ZM312.513 193.878C312.513 194.234 312.591 194.542 312.747 194.802C312.903 195.062 313.105 195.264 313.353 195.408C313.605 195.548 313.873 195.618 314.157 195.618C314.461 195.618 314.733 195.546 314.973 195.402C315.213 195.258 315.403 195.056 315.543 194.796C315.683 194.532 315.753 194.226 315.753 193.878C315.753 193.53 315.683 193.226 315.543 192.966C315.403 192.702 315.213 192.498 314.973 192.354C314.733 192.206 314.461 192.132 314.157 192.132C313.873 192.132 313.605 192.204 313.353 192.348C313.105 192.492 312.903 192.694 312.747 192.954C312.591 193.214 312.513 193.522 312.513 193.878ZM319.218 196.338H318.18V191.412H319.218V192.264H319.188C319.208 192.16 319.282 192.03 319.41 191.874C319.538 191.718 319.714 191.578 319.938 191.454C320.162 191.33 320.43 191.268 320.742 191.268C320.97 191.268 321.17 191.3 321.342 191.364C321.518 191.424 321.642 191.484 321.714 191.544L321.288 192.408C321.232 192.352 321.134 192.296 320.994 192.24C320.854 192.18 320.68 192.15 320.472 192.15C320.208 192.15 319.982 192.232 319.794 192.396C319.606 192.56 319.462 192.758 319.362 192.99C319.266 193.218 319.218 193.43 319.218 193.626V196.338ZM324.433 195.384L326.095 191.412H327.139L323.815 198.834H322.759L323.875 196.338L321.847 191.412H322.909L324.433 195.384ZM330.948 188.418H335.076V189.348H331.968V191.904H334.866V192.828H331.968V196.338H330.948V188.418ZM337.465 196.338H336.415V188.082H337.465V196.338ZM341.015 195.384L342.677 191.412H343.721L340.397 198.834H339.341L340.457 196.338L338.429 191.412H339.491L341.015 195.384ZM344.626 196.338V191.412H345.67V196.338H344.626ZM345.16 189.726C344.972 189.726 344.81 189.66 344.674 189.528C344.542 189.392 344.476 189.23 344.476 189.042C344.476 188.854 344.542 188.692 344.674 188.556C344.81 188.42 344.972 188.352 345.16 188.352C345.284 188.352 345.398 188.384 345.502 188.448C345.61 188.512 345.696 188.596 345.76 188.7C345.824 188.8 345.856 188.914 345.856 189.042C345.856 189.23 345.788 189.392 345.652 189.528C345.516 189.66 345.352 189.726 345.16 189.726ZM350.02 191.268C350.344 191.268 350.658 191.336 350.962 191.472C351.27 191.608 351.522 191.824 351.718 192.12C351.918 192.412 352.018 192.794 352.018 193.266V196.338H350.962V193.47C350.962 192.982 350.848 192.628 350.62 192.408C350.392 192.184 350.098 192.072 349.738 192.072C349.502 192.072 349.274 192.14 349.054 192.276C348.838 192.408 348.66 192.592 348.52 192.828C348.38 193.06 348.31 193.324 348.31 193.62V196.338H347.266V191.412H348.31V192.288C348.346 192.152 348.444 192.004 348.604 191.844C348.764 191.684 348.968 191.548 349.216 191.436C349.464 191.324 349.732 191.268 350.02 191.268ZM355.735 198.972C355.347 198.972 354.995 198.932 354.679 198.852C354.367 198.772 354.093 198.658 353.857 198.51C353.625 198.366 353.439 198.196 353.299 198L353.983 197.346C354.059 197.45 354.161 197.56 354.289 197.676C354.421 197.796 354.599 197.898 354.823 197.982C355.047 198.066 355.339 198.108 355.699 198.108C356.051 198.108 356.349 198.032 356.593 197.88C356.837 197.732 357.023 197.53 357.151 197.274C357.279 197.018 357.343 196.73 357.343 196.41V196.248H358.363V196.476C358.363 197.02 358.245 197.476 358.009 197.844C357.777 198.216 357.463 198.496 357.067 198.684C356.671 198.876 356.227 198.972 355.735 198.972ZM357.343 196.338V195.378C357.311 195.478 357.217 195.616 357.061 195.792C356.909 195.968 356.699 196.128 356.431 196.272C356.167 196.412 355.855 196.482 355.495 196.482C355.039 196.482 354.625 196.374 354.253 196.158C353.885 195.942 353.591 195.64 353.371 195.252C353.155 194.86 353.047 194.402 353.047 193.878C353.047 193.354 353.155 192.898 353.371 192.51C353.591 192.118 353.885 191.814 354.253 191.598C354.625 191.378 355.039 191.268 355.495 191.268C355.851 191.268 356.159 191.332 356.419 191.46C356.683 191.588 356.893 191.736 357.049 191.904C357.209 192.072 357.303 192.216 357.331 192.336V191.412H358.363V196.338H357.343ZM354.079 193.878C354.079 194.234 354.157 194.542 354.313 194.802C354.469 195.062 354.671 195.264 354.919 195.408C355.171 195.548 355.439 195.618 355.723 195.618C356.027 195.618 356.299 195.546 356.539 195.402C356.779 195.258 356.969 195.056 357.109 194.796C357.249 194.532 357.319 194.226 357.319 193.878C357.319 193.53 357.249 193.226 357.109 192.966C356.969 192.702 356.779 192.498 356.539 192.354C356.299 192.206 356.027 192.132 355.723 192.132C355.439 192.132 355.171 192.204 354.919 192.348C354.671 192.492 354.469 192.694 354.313 192.954C354.157 193.214 354.079 193.522 354.079 193.878ZM316.9 206.468C317.392 206.468 317.818 206.4 318.178 206.264C318.542 206.128 318.8 205.996 318.952 205.868L319.402 206.75C319.222 206.91 318.908 207.072 318.46 207.236C318.016 207.4 317.482 207.482 316.858 207.482C316.274 207.482 315.732 207.378 315.232 207.17C314.732 206.962 314.294 206.672 313.918 206.3C313.546 205.928 313.254 205.494 313.042 204.998C312.834 204.502 312.73 203.966 312.73 203.39C312.73 202.814 312.834 202.276 313.042 201.776C313.25 201.276 313.54 200.84 313.912 200.468C314.288 200.092 314.726 199.8 315.226 199.592C315.73 199.38 316.274 199.274 316.858 199.274C317.482 199.274 318.016 199.356 318.46 199.52C318.908 199.684 319.222 199.846 319.402 200.006L318.952 200.888C318.8 200.756 318.542 200.624 318.178 200.492C317.818 200.356 317.392 200.288 316.9 200.288C316.452 200.288 316.042 200.364 315.67 200.516C315.298 200.668 314.974 200.884 314.698 201.164C314.426 201.44 314.214 201.766 314.062 202.142C313.914 202.518 313.84 202.928 313.84 203.372C313.84 203.82 313.914 204.234 314.062 204.614C314.214 204.99 314.426 205.318 314.698 205.598C314.974 205.874 315.298 206.088 315.67 206.24C316.042 206.392 316.452 206.468 316.9 206.468ZM321.692 207.338H320.642V199.082H321.692V207.338ZM324.173 204.896C324.173 205.412 324.283 205.824 324.503 206.132C324.727 206.436 325.069 206.588 325.529 206.588C325.993 206.588 326.335 206.436 326.555 206.132C326.775 205.824 326.885 205.412 326.885 204.896V202.412H327.917V205.04C327.917 205.52 327.823 205.944 327.635 206.312C327.451 206.68 327.181 206.968 326.825 207.176C326.473 207.38 326.041 207.482 325.529 207.482C325.021 207.482 324.589 207.38 324.233 207.176C323.881 206.968 323.611 206.68 323.423 206.312C323.239 205.944 323.147 205.52 323.147 205.04V202.412H324.173V204.896ZM329.312 207.338V199.082H330.368V203.336C330.392 203.212 330.486 203.066 330.65 202.898C330.814 202.73 331.034 202.584 331.31 202.46C331.586 202.332 331.904 202.268 332.264 202.268C332.724 202.268 333.132 202.378 333.488 202.598C333.844 202.814 334.124 203.118 334.328 203.51C334.536 203.898 334.64 204.354 334.64 204.878C334.64 205.402 334.536 205.86 334.328 206.252C334.124 206.64 333.844 206.942 333.488 207.158C333.132 207.374 332.724 207.482 332.264 207.482C331.924 207.482 331.616 207.418 331.34 207.29C331.068 207.162 330.846 207.012 330.674 206.84C330.502 206.668 330.394 206.514 330.35 206.378V207.338H329.312ZM333.602 204.878C333.602 204.522 333.53 204.214 333.386 203.954C333.242 203.694 333.05 203.492 332.81 203.348C332.574 203.204 332.314 203.132 332.03 203.132C331.722 203.132 331.442 203.206 331.19 203.354C330.938 203.498 330.738 203.702 330.59 203.966C330.442 204.226 330.368 204.53 330.368 204.878C330.368 205.226 330.442 205.532 330.59 205.796C330.738 206.056 330.938 206.258 331.19 206.402C331.442 206.546 331.722 206.618 332.03 206.618C332.314 206.618 332.574 206.548 332.81 206.408C333.05 206.264 333.242 206.062 333.386 205.802C333.53 205.542 333.602 205.234 333.602 204.878Z" fill="black"/>
<path d="M486.165 193.918H488.409C488.905 193.918 489.351 194 489.747 194.164C490.147 194.324 490.465 194.576 490.701 194.92C490.937 195.264 491.055 195.712 491.055 196.264C491.055 196.812 490.937 197.266 490.701 197.626C490.465 197.986 490.147 198.256 489.747 198.436C489.351 198.612 488.905 198.7 488.409 198.7H487.191V201.838H486.165V193.918ZM487.191 197.842H488.127C488.467 197.842 488.775 197.792 489.051 197.692C489.331 197.592 489.553 197.428 489.717 197.2C489.885 196.972 489.969 196.666 489.969 196.282C489.969 195.894 489.885 195.592 489.717 195.376C489.553 195.156 489.331 195.002 489.051 194.914C488.775 194.822 488.467 194.776 488.127 194.776H487.191V197.842ZM495.871 201.838V200.878C495.839 200.978 495.745 201.116 495.589 201.292C495.437 201.468 495.227 201.628 494.959 201.772C494.695 201.912 494.383 201.982 494.023 201.982C493.567 201.982 493.153 201.874 492.781 201.658C492.413 201.442 492.119 201.14 491.899 200.752C491.683 200.36 491.575 199.902 491.575 199.378C491.575 198.854 491.683 198.398 491.899 198.01C492.119 197.618 492.413 197.314 492.781 197.098C493.153 196.878 493.567 196.768 494.023 196.768C494.379 196.768 494.687 196.832 494.947 196.96C495.211 197.088 495.421 197.236 495.577 197.404C495.737 197.572 495.831 197.716 495.859 197.836V196.912H496.891V201.838H495.871ZM492.607 199.378C492.607 199.734 492.685 200.042 492.841 200.302C492.997 200.562 493.199 200.764 493.447 200.908C493.699 201.048 493.967 201.118 494.251 201.118C494.555 201.118 494.827 201.046 495.067 200.902C495.307 200.758 495.497 200.556 495.637 200.296C495.777 200.032 495.847 199.726 495.847 199.378C495.847 199.03 495.777 198.726 495.637 198.466C495.497 198.202 495.307 197.998 495.067 197.854C494.827 197.706 494.555 197.632 494.251 197.632C493.967 197.632 493.699 197.704 493.447 197.848C493.199 197.992 492.997 198.194 492.841 198.454C492.685 198.714 492.607 199.022 492.607 199.378ZM499.312 201.838H498.274V196.912H499.312V197.764H499.282C499.302 197.66 499.376 197.53 499.504 197.374C499.632 197.218 499.808 197.078 500.032 196.954C500.256 196.83 500.524 196.768 500.836 196.768C501.064 196.768 501.264 196.8 501.436 196.864C501.612 196.924 501.736 196.984 501.808 197.044L501.382 197.908C501.326 197.852 501.228 197.796 501.088 197.74C500.948 197.68 500.774 197.65 500.566 197.65C500.302 197.65 500.076 197.732 499.888 197.896C499.7 198.06 499.556 198.258 499.456 198.49C499.36 198.718 499.312 198.93 499.312 199.126V201.838ZM505.494 196.912H506.754L504.21 199.258L506.922 201.838H505.644L503.358 199.654V201.838H502.314V193.582H503.358V198.862L505.494 196.912ZM507.764 201.838V196.912H508.808V201.838H507.764ZM508.298 195.226C508.11 195.226 507.948 195.16 507.812 195.028C507.68 194.892 507.614 194.73 507.614 194.542C507.614 194.354 507.68 194.192 507.812 194.056C507.948 193.92 508.11 193.852 508.298 193.852C508.422 193.852 508.536 193.884 508.64 193.948C508.748 194.012 508.834 194.096 508.898 194.2C508.962 194.3 508.994 194.414 508.994 194.542C508.994 194.73 508.926 194.892 508.79 195.028C508.654 195.16 508.49 195.226 508.298 195.226ZM513.157 196.768C513.481 196.768 513.795 196.836 514.099 196.972C514.407 197.108 514.659 197.324 514.855 197.62C515.055 197.912 515.155 198.294 515.155 198.766V201.838H514.099V198.97C514.099 198.482 513.985 198.128 513.757 197.908C513.529 197.684 513.235 197.572 512.875 197.572C512.639 197.572 512.411 197.64 512.191 197.776C511.975 197.908 511.797 198.092 511.657 198.328C511.517 198.56 511.447 198.824 511.447 199.12V201.838H510.403V196.912H511.447V197.788C511.483 197.652 511.581 197.504 511.741 197.344C511.901 197.184 512.105 197.048 512.353 196.936C512.601 196.824 512.869 196.768 513.157 196.768ZM518.873 204.472C518.485 204.472 518.133 204.432 517.817 204.352C517.505 204.272 517.231 204.158 516.995 204.01C516.763 203.866 516.577 203.696 516.437 203.5L517.121 202.846C517.197 202.95 517.299 203.06 517.427 203.176C517.559 203.296 517.737 203.398 517.961 203.482C518.185 203.566 518.477 203.608 518.837 203.608C519.189 203.608 519.487 203.532 519.731 203.38C519.975 203.232 520.161 203.03 520.289 202.774C520.417 202.518 520.481 202.23 520.481 201.91V201.748H521.501V201.976C521.501 202.52 521.383 202.976 521.147 203.344C520.915 203.716 520.601 203.996 520.205 204.184C519.809 204.376 519.365 204.472 518.873 204.472ZM520.481 201.838V200.878C520.449 200.978 520.355 201.116 520.199 201.292C520.047 201.468 519.837 201.628 519.569 201.772C519.305 201.912 518.993 201.982 518.633 201.982C518.177 201.982 517.763 201.874 517.391 201.658C517.023 201.442 516.729 201.14 516.509 200.752C516.293 200.36 516.185 199.902 516.185 199.378C516.185 198.854 516.293 198.398 516.509 198.01C516.729 197.618 517.023 197.314 517.391 197.098C517.763 196.878 518.177 196.768 518.633 196.768C518.989 196.768 519.297 196.832 519.557 196.96C519.821 197.088 520.031 197.236 520.187 197.404C520.347 197.572 520.441 197.716 520.469 197.836V196.912H521.501V201.838H520.481ZM517.217 199.378C517.217 199.734 517.295 200.042 517.451 200.302C517.607 200.562 517.809 200.764 518.057 200.908C518.309 201.048 518.577 201.118 518.861 201.118C519.165 201.118 519.437 201.046 519.677 200.902C519.917 200.758 520.107 200.556 520.247 200.296C520.387 200.032 520.457 199.726 520.457 199.378C520.457 199.03 520.387 198.726 520.247 198.466C520.107 198.202 519.917 197.998 519.677 197.854C519.437 197.706 519.165 197.632 518.861 197.632C518.577 197.632 518.309 197.704 518.057 197.848C517.809 197.992 517.607 198.194 517.451 198.454C517.295 198.714 517.217 199.022 517.217 199.378ZM528.361 193.918H529.429L532.357 201.838H531.259L530.575 199.93H527.215L526.519 201.838H525.421L528.361 193.918ZM527.545 199.006H530.251L528.907 195.178H528.889L527.545 199.006ZM534.199 201.838H533.161V196.912H534.199V197.764H534.169C534.189 197.66 534.263 197.53 534.391 197.374C534.519 197.218 534.695 197.078 534.919 196.954C535.143 196.83 535.411 196.768 535.723 196.768C535.951 196.768 536.151 196.8 536.323 196.864C536.499 196.924 536.623 196.984 536.695 197.044L536.269 197.908C536.213 197.852 536.115 197.796 535.975 197.74C535.835 197.68 535.661 197.65 535.453 197.65C535.189 197.65 534.963 197.732 534.775 197.896C534.587 198.06 534.443 198.258 534.343 198.49C534.247 198.718 534.199 198.93 534.199 199.126V201.838ZM537.917 199.588C537.921 199.884 537.985 200.154 538.109 200.398C538.233 200.642 538.417 200.836 538.661 200.98C538.909 201.124 539.213 201.196 539.573 201.196C539.877 201.196 540.135 201.152 540.347 201.064C540.563 200.972 540.739 200.864 540.875 200.74C541.011 200.612 541.109 200.498 541.169 200.398L541.679 201.028C541.547 201.22 541.385 201.388 541.193 201.532C541.005 201.676 540.775 201.786 540.503 201.862C540.231 201.942 539.899 201.982 539.507 201.982C538.979 201.982 538.521 201.87 538.133 201.646C537.749 201.418 537.453 201.104 537.245 200.704C537.037 200.3 536.933 199.838 536.933 199.318C536.933 198.838 537.031 198.406 537.227 198.022C537.423 197.634 537.707 197.328 538.079 197.104C538.455 196.88 538.907 196.768 539.435 196.768C539.919 196.768 540.339 196.87 540.695 197.074C541.055 197.274 541.333 197.558 541.529 197.926C541.729 198.294 541.829 198.734 541.829 199.246C541.829 199.278 541.827 199.336 541.823 199.42C541.819 199.5 541.815 199.556 541.811 199.588H537.917ZM540.833 198.802C540.829 198.638 540.781 198.458 540.689 198.262C540.601 198.066 540.457 197.898 540.257 197.758C540.057 197.618 539.787 197.548 539.447 197.548C539.095 197.548 538.811 197.616 538.595 197.752C538.383 197.888 538.227 198.054 538.127 198.25C538.027 198.442 537.969 198.626 537.953 198.802H540.833ZM546.942 201.838V200.878C546.91 200.978 546.816 201.116 546.66 201.292C546.508 201.468 546.298 201.628 546.03 201.772C545.766 201.912 545.454 201.982 545.094 201.982C544.638 201.982 544.224 201.874 543.852 201.658C543.484 201.442 543.19 201.14 542.97 200.752C542.754 200.36 542.646 199.902 542.646 199.378C542.646 198.854 542.754 198.398 542.97 198.01C543.19 197.618 543.484 197.314 543.852 197.098C544.224 196.878 544.638 196.768 545.094 196.768C545.45 196.768 545.758 196.832 546.018 196.96C546.282 197.088 546.492 197.236 546.648 197.404C546.808 197.572 546.902 197.716 546.93 197.836V196.912H547.962V201.838H546.942ZM543.678 199.378C543.678 199.734 543.756 200.042 543.912 200.302C544.068 200.562 544.27 200.764 544.518 200.908C544.77 201.048 545.038 201.118 545.322 201.118C545.626 201.118 545.898 201.046 546.138 200.902C546.378 200.758 546.568 200.556 546.708 200.296C546.848 200.032 546.918 199.726 546.918 199.378C546.918 199.03 546.848 198.726 546.708 198.466C546.568 198.202 546.378 197.998 546.138 197.854C545.898 197.706 545.626 197.632 545.322 197.632C545.038 197.632 544.77 197.704 544.518 197.848C544.27 197.992 544.068 198.194 543.912 198.454C543.756 198.714 543.678 199.022 543.678 199.378Z" fill="black"/>
<path d="M639.527 247.776C639.983 247.776 640.375 247.828 640.703 247.932C641.035 248.036 641.295 248.146 641.483 248.262C641.675 248.378 641.789 248.454 641.825 248.49L641.297 249.336C641.237 249.284 641.131 249.21 640.979 249.114C640.827 249.014 640.637 248.926 640.409 248.85C640.181 248.77 639.921 248.73 639.629 248.73C639.177 248.73 638.819 248.822 638.555 249.006C638.295 249.186 638.165 249.442 638.165 249.774C638.165 249.998 638.233 250.196 638.369 250.368C638.509 250.536 638.705 250.69 638.957 250.83C639.209 250.97 639.503 251.114 639.839 251.262C640.115 251.378 640.385 251.51 640.649 251.658C640.917 251.806 641.159 251.98 641.375 252.18C641.595 252.38 641.769 252.612 641.897 252.876C642.029 253.14 642.095 253.444 642.095 253.788C642.095 254.128 642.025 254.434 641.885 254.706C641.749 254.978 641.555 255.21 641.303 255.402C641.055 255.59 640.765 255.734 640.433 255.834C640.101 255.934 639.743 255.984 639.359 255.984C638.875 255.984 638.437 255.924 638.045 255.804C637.657 255.684 637.343 255.558 637.103 255.426C636.867 255.294 636.731 255.212 636.695 255.18L637.253 254.298C637.301 254.338 637.389 254.398 637.517 254.478C637.645 254.554 637.803 254.634 637.991 254.718C638.179 254.802 638.391 254.874 638.627 254.934C638.863 254.99 639.115 255.018 639.383 255.018C639.919 255.018 640.325 254.898 640.601 254.658C640.877 254.418 641.015 254.11 641.015 253.734C641.015 253.446 640.927 253.198 640.751 252.99C640.575 252.782 640.341 252.596 640.049 252.432C639.757 252.268 639.435 252.11 639.083 251.958C638.723 251.794 638.393 251.614 638.093 251.418C637.793 251.222 637.551 250.988 637.367 250.716C637.187 250.44 637.097 250.108 637.097 249.72C637.097 249.336 637.205 248.998 637.421 248.706C637.641 248.414 637.935 248.186 638.303 248.022C638.675 247.858 639.083 247.776 639.527 247.776ZM644.427 258.336H643.389V250.914H644.445V251.838C644.481 251.714 644.581 251.568 644.745 251.4C644.909 251.232 645.129 251.086 645.405 250.962C645.685 250.834 646.005 250.77 646.365 250.77C646.821 250.77 647.225 250.88 647.577 251.1C647.933 251.316 648.211 251.62 648.411 252.012C648.615 252.4 648.717 252.856 648.717 253.38C648.717 253.904 648.613 254.362 648.405 254.754C648.197 255.142 647.913 255.444 647.553 255.66C647.197 255.876 646.789 255.984 646.329 255.984C645.957 255.984 645.631 255.914 645.351 255.774C645.075 255.634 644.857 255.476 644.697 255.3C644.541 255.124 644.451 254.984 644.427 254.88V258.336ZM647.685 253.38C647.685 253.024 647.611 252.716 647.463 252.456C647.319 252.196 647.127 251.994 646.887 251.85C646.647 251.706 646.387 251.634 646.107 251.634C645.799 251.634 645.519 251.708 645.267 251.856C645.015 252 644.815 252.204 644.667 252.468C644.519 252.728 644.445 253.032 644.445 253.38C644.445 253.728 644.519 254.034 644.667 254.298C644.815 254.558 645.015 254.76 645.267 254.904C645.519 255.048 645.799 255.12 646.107 255.12C646.387 255.12 646.647 255.05 646.887 254.91C647.127 254.766 647.319 254.564 647.463 254.304C647.611 254.044 647.685 253.736 647.685 253.38ZM650.831 255.84H649.793V250.914H650.831V251.766H650.801C650.821 251.662 650.895 251.532 651.023 251.376C651.151 251.22 651.327 251.08 651.551 250.956C651.775 250.832 652.043 250.77 652.355 250.77C652.583 250.77 652.783 250.802 652.955 250.866C653.131 250.926 653.255 250.986 653.327 251.046L652.901 251.91C652.845 251.854 652.747 251.798 652.607 251.742C652.467 251.682 652.293 251.652 652.085 251.652C651.821 251.652 651.595 251.734 651.407 251.898C651.219 252.062 651.075 252.26 650.975 252.492C650.879 252.72 650.831 252.932 650.831 253.128V255.84ZM654.114 255.84V250.914H655.158V255.84H654.114ZM654.648 249.228C654.46 249.228 654.298 249.162 654.162 249.03C654.03 248.894 653.964 248.732 653.964 248.544C653.964 248.356 654.03 248.194 654.162 248.058C654.298 247.922 654.46 247.854 654.648 247.854C654.772 247.854 654.886 247.886 654.99 247.95C655.098 248.014 655.184 248.098 655.248 248.202C655.312 248.302 655.344 248.416 655.344 248.544C655.344 248.732 655.276 248.894 655.14 249.03C655.004 249.162 654.84 249.228 654.648 249.228ZM659.508 250.77C659.832 250.77 660.146 250.838 660.45 250.974C660.758 251.11 661.01 251.326 661.206 251.622C661.406 251.914 661.506 252.296 661.506 252.768V255.84H660.45V252.972C660.45 252.484 660.336 252.13 660.108 251.91C659.88 251.686 659.586 251.574 659.226 251.574C658.99 251.574 658.762 251.642 658.542 251.778C658.326 251.91 658.148 252.094 658.008 252.33C657.868 252.562 657.798 252.826 657.798 253.122V255.84H656.754V250.914H657.798V251.79C657.834 251.654 657.932 251.506 658.092 251.346C658.252 251.186 658.456 251.05 658.704 250.938C658.952 250.826 659.22 250.77 659.508 250.77ZM665.223 258.474C664.835 258.474 664.483 258.434 664.167 258.354C663.855 258.274 663.581 258.16 663.345 258.012C663.113 257.868 662.927 257.698 662.787 257.502L663.471 256.848C663.547 256.952 663.649 257.062 663.777 257.178C663.909 257.298 664.087 257.4 664.311 257.484C664.535 257.568 664.827 257.61 665.187 257.61C665.539 257.61 665.837 257.534 666.081 257.382C666.325 257.234 666.511 257.032 666.639 256.776C666.767 256.52 666.831 256.232 666.831 255.912V255.75H667.851V255.978C667.851 256.522 667.733 256.978 667.497 257.346C667.265 257.718 666.951 257.998 666.555 258.186C666.159 258.378 665.715 258.474 665.223 258.474ZM666.831 255.84V254.88C666.799 254.98 666.705 255.118 666.549 255.294C666.397 255.47 666.187 255.63 665.919 255.774C665.655 255.914 665.343 255.984 664.983 255.984C664.527 255.984 664.113 255.876 663.741 255.66C663.373 255.444 663.079 255.142 662.859 254.754C662.643 254.362 662.535 253.904 662.535 253.38C662.535 252.856 662.643 252.4 662.859 252.012C663.079 251.62 663.373 251.316 663.741 251.1C664.113 250.88 664.527 250.77 664.983 250.77C665.339 250.77 665.647 250.834 665.907 250.962C666.171 251.09 666.381 251.238 666.537 251.406C666.697 251.574 666.791 251.718 666.819 251.838V250.914H667.851V255.84H666.831ZM663.567 253.38C663.567 253.736 663.645 254.044 663.801 254.304C663.957 254.564 664.159 254.766 664.407 254.91C664.659 255.05 664.927 255.12 665.211 255.12C665.515 255.12 665.787 255.048 666.027 254.904C666.267 254.76 666.457 254.558 666.597 254.298C666.737 254.034 666.807 253.728 666.807 253.38C666.807 253.032 666.737 252.728 666.597 252.468C666.457 252.204 666.267 252 666.027 251.856C665.787 251.708 665.515 251.634 665.211 251.634C664.927 251.634 664.659 251.706 664.407 251.85C664.159 251.994 663.957 252.196 663.801 252.456C663.645 252.716 663.567 253.024 663.567 253.38ZM669.269 255.84V247.584H670.325V251.838C670.349 251.714 670.443 251.568 670.607 251.4C670.771 251.232 670.991 251.086 671.267 250.962C671.543 250.834 671.861 250.77 672.221 250.77C672.681 250.77 673.089 250.88 673.445 251.1C673.801 251.316 674.081 251.62 674.285 252.012C674.493 252.4 674.597 252.856 674.597 253.38C674.597 253.904 674.493 254.362 674.285 254.754C674.081 255.142 673.801 255.444 673.445 255.66C673.089 255.876 672.681 255.984 672.221 255.984C671.881 255.984 671.573 255.92 671.297 255.792C671.025 255.664 670.803 255.514 670.631 255.342C670.459 255.17 670.351 255.016 670.307 254.88V255.84H669.269ZM673.559 253.38C673.559 253.024 673.487 252.716 673.343 252.456C673.199 252.196 673.007 251.994 672.767 251.85C672.531 251.706 672.271 251.634 671.987 251.634C671.679 251.634 671.399 251.708 671.147 251.856C670.895 252 670.695 252.204 670.547 252.468C670.399 252.728 670.325 253.032 670.325 253.38C670.325 253.728 670.399 254.034 670.547 254.298C670.695 254.558 670.895 254.76 671.147 254.904C671.399 255.048 671.679 255.12 671.987 255.12C672.271 255.12 672.531 255.05 672.767 254.91C673.007 254.766 673.199 254.564 673.343 254.304C673.487 254.044 673.559 253.736 673.559 253.38ZM679.546 255.84V254.88C679.514 254.98 679.42 255.118 679.264 255.294C679.112 255.47 678.902 255.63 678.634 255.774C678.37 255.914 678.058 255.984 677.698 255.984C677.242 255.984 676.828 255.876 676.456 255.66C676.088 255.444 675.794 255.142 675.574 254.754C675.358 254.362 675.25 253.904 675.25 253.38C675.25 252.856 675.358 252.4 675.574 252.012C675.794 251.62 676.088 251.316 676.456 251.1C676.828 250.88 677.242 250.77 677.698 250.77C678.054 250.77 678.362 250.834 678.622 250.962C678.886 251.09 679.096 251.238 679.252 251.406C679.412 251.574 679.506 251.718 679.534 251.838V250.914H680.566V255.84H679.546ZM676.282 253.38C676.282 253.736 676.36 254.044 676.516 254.304C676.672 254.564 676.874 254.766 677.122 254.91C677.374 255.05 677.642 255.12 677.926 255.12C678.23 255.12 678.502 255.048 678.742 254.904C678.982 254.76 679.172 254.558 679.312 254.298C679.452 254.034 679.522 253.728 679.522 253.38C679.522 253.032 679.452 252.728 679.312 252.468C679.172 252.204 678.982 252 678.742 251.856C678.502 251.708 678.23 251.634 677.926 251.634C677.642 251.634 677.374 251.706 677.122 251.85C676.874 251.994 676.672 252.196 676.516 252.456C676.36 252.716 676.282 253.024 676.282 253.38ZM684.715 250.77C685.039 250.77 685.353 250.838 685.657 250.974C685.965 251.11 686.217 251.326 686.413 251.622C686.613 251.914 686.713 252.296 686.713 252.768V255.84H685.657V252.972C685.657 252.484 685.543 252.13 685.315 251.91C685.087 251.686 684.793 251.574 684.433 251.574C684.197 251.574 683.969 251.642 683.749 251.778C683.533 251.91 683.355 252.094 683.215 252.33C683.075 252.562 683.005 252.826 683.005 253.122V255.84H681.961V250.914H683.005V251.79C683.041 251.654 683.139 251.506 683.299 251.346C683.459 251.186 683.663 251.05 683.911 250.938C684.159 250.826 684.427 250.77 684.715 250.77ZM691.09 250.914H692.35L689.806 253.26L692.518 255.84H691.24L688.954 253.656V255.84H687.91V247.584H688.954V252.864L691.09 250.914ZM630.432 258.92H631.5L634.428 266.84H633.33L632.646 264.932H629.286L628.59 266.84H627.492L630.432 258.92ZM629.616 264.008H632.322L630.978 260.18H630.96L629.616 264.008ZM635.358 266.84V261.914H636.402V266.84H635.358ZM635.892 260.228C635.704 260.228 635.542 260.162 635.406 260.03C635.274 259.894 635.208 259.732 635.208 259.544C635.208 259.356 635.274 259.194 635.406 259.058C635.542 258.922 635.704 258.854 635.892 258.854C636.016 258.854 636.13 258.886 636.234 258.95C636.342 259.014 636.428 259.098 636.492 259.202C636.556 259.302 636.588 259.416 636.588 259.544C636.588 259.732 636.52 259.894 636.384 260.03C636.248 260.162 636.084 260.228 635.892 260.228ZM639.024 266.84H637.986V261.914H639.024V262.766H638.994C639.014 262.662 639.088 262.532 639.216 262.376C639.344 262.22 639.52 262.08 639.744 261.956C639.968 261.832 640.236 261.77 640.548 261.77C640.776 261.77 640.976 261.802 641.148 261.866C641.324 261.926 641.448 261.986 641.52 262.046L641.094 262.91C641.038 262.854 640.94 262.798 640.8 262.742C640.66 262.682 640.486 262.652 640.278 262.652C640.014 262.652 639.788 262.734 639.6 262.898C639.412 263.062 639.268 263.26 639.168 263.492C639.072 263.72 639.024 263.932 639.024 264.128V266.84ZM643.249 269.336H642.211V261.914H643.267V262.838C643.303 262.714 643.403 262.568 643.567 262.4C643.731 262.232 643.951 262.086 644.227 261.962C644.507 261.834 644.827 261.77 645.187 261.77C645.643 261.77 646.047 261.88 646.399 262.1C646.755 262.316 647.033 262.62 647.233 263.012C647.437 263.4 647.539 263.856 647.539 264.38C647.539 264.904 647.435 265.362 647.227 265.754C647.019 266.142 646.735 266.444 646.375 266.66C646.019 266.876 645.611 266.984 645.151 266.984C644.779 266.984 644.453 266.914 644.173 266.774C643.897 266.634 643.679 266.476 643.519 266.3C643.363 266.124 643.273 265.984 643.249 265.88V269.336ZM646.507 264.38C646.507 264.024 646.433 263.716 646.285 263.456C646.141 263.196 645.949 262.994 645.709 262.85C645.469 262.706 645.209 262.634 644.929 262.634C644.621 262.634 644.341 262.708 644.089 262.856C643.837 263 643.637 263.204 643.489 263.468C643.341 263.728 643.267 264.032 643.267 264.38C643.267 264.728 643.341 265.034 643.489 265.298C643.637 265.558 643.837 265.76 644.089 265.904C644.341 266.048 644.621 266.12 644.929 266.12C645.209 266.12 645.469 266.05 645.709 265.91C645.949 265.766 646.141 265.564 646.285 265.304C646.433 265.044 646.507 264.736 646.507 264.38ZM650.907 266.984C650.399 266.984 649.947 266.87 649.551 266.642C649.159 266.414 648.851 266.106 648.627 265.718C648.403 265.326 648.291 264.884 648.291 264.392C648.291 263.9 648.403 263.456 648.627 263.06C648.851 262.664 649.159 262.35 649.551 262.118C649.947 261.886 650.399 261.77 650.907 261.77C651.411 261.77 651.857 261.886 652.245 262.118C652.637 262.35 652.943 262.664 653.163 263.06C653.383 263.456 653.493 263.9 653.493 264.392C653.493 264.884 653.383 265.326 653.163 265.718C652.943 266.106 652.637 266.414 652.245 266.642C651.857 266.87 651.411 266.984 650.907 266.984ZM650.907 266.09C651.227 266.09 651.505 266.016 651.741 265.868C651.981 265.72 652.167 265.518 652.299 265.262C652.431 265.002 652.497 264.71 652.497 264.386C652.497 264.062 652.431 263.77 652.299 263.51C652.167 263.25 651.981 263.044 651.741 262.892C651.505 262.74 651.227 262.664 650.907 262.664C650.583 262.664 650.301 262.74 650.061 262.892C649.821 263.044 649.633 263.25 649.497 263.51C649.365 263.77 649.299 264.062 649.299 264.386C649.299 264.71 649.365 265.002 649.497 265.262C649.633 265.518 649.821 265.72 650.061 265.868C650.301 266.016 650.583 266.09 650.907 266.09ZM655.677 266.84H654.639V261.914H655.677V262.766H655.647C655.667 262.662 655.741 262.532 655.869 262.376C655.997 262.22 656.173 262.08 656.397 261.956C656.621 261.832 656.889 261.77 657.201 261.77C657.429 261.77 657.629 261.802 657.801 261.866C657.977 261.926 658.101 261.986 658.173 262.046L657.747 262.91C657.691 262.854 657.593 262.798 657.453 262.742C657.313 262.682 657.139 262.652 656.931 262.652C656.667 262.652 656.441 262.734 656.253 262.898C656.065 263.062 655.921 263.26 655.821 263.492C655.725 263.72 655.677 263.932 655.677 264.128V266.84ZM658.496 261.914H659.462V259.892H660.5V261.914H661.766V262.808H660.5V265.244C660.5 265.532 660.55 265.744 660.65 265.88C660.754 266.016 660.892 266.084 661.064 266.084C661.216 266.084 661.334 266.056 661.418 266C661.502 265.944 661.552 265.906 661.568 265.886L661.982 266.654C661.958 266.674 661.894 266.712 661.79 266.768C661.686 266.824 661.552 266.874 661.388 266.918C661.224 266.962 661.032 266.984 660.812 266.984C660.428 266.984 660.106 266.868 659.846 266.636C659.59 266.4 659.462 266.028 659.462 265.52V262.808H658.496V261.914ZM669.753 265.97C670.245 265.97 670.671 265.902 671.031 265.766C671.395 265.63 671.653 265.498 671.805 265.37L672.255 266.252C672.075 266.412 671.761 266.574 671.313 266.738C670.869 266.902 670.335 266.984 669.711 266.984C669.127 266.984 668.585 266.88 668.085 266.672C667.585 266.464 667.147 266.174 666.771 265.802C666.399 265.43 666.107 264.996 665.895 264.5C665.687 264.004 665.583 263.468 665.583 262.892C665.583 262.316 665.687 261.778 665.895 261.278C666.103 260.778 666.393 260.342 666.765 259.97C667.141 259.594 667.579 259.302 668.079 259.094C668.583 258.882 669.127 258.776 669.711 258.776C670.335 258.776 670.869 258.858 671.313 259.022C671.761 259.186 672.075 259.348 672.255 259.508L671.805 260.39C671.653 260.258 671.395 260.126 671.031 259.994C670.671 259.858 670.245 259.79 669.753 259.79C669.305 259.79 668.895 259.866 668.523 260.018C668.151 260.17 667.827 260.386 667.551 260.666C667.279 260.942 667.067 261.268 666.915 261.644C666.767 262.02 666.693 262.43 666.693 262.874C666.693 263.322 666.767 263.736 666.915 264.116C667.067 264.492 667.279 264.82 667.551 265.1C667.827 265.376 668.151 265.59 668.523 265.742C668.895 265.894 669.305 265.97 669.753 265.97ZM675.739 266.984C675.231 266.984 674.779 266.87 674.383 266.642C673.991 266.414 673.683 266.106 673.459 265.718C673.235 265.326 673.123 264.884 673.123 264.392C673.123 263.9 673.235 263.456 673.459 263.06C673.683 262.664 673.991 262.35 674.383 262.118C674.779 261.886 675.231 261.77 675.739 261.77C676.243 261.77 676.689 261.886 677.077 262.118C677.469 262.35 677.775 262.664 677.995 263.06C678.215 263.456 678.325 263.9 678.325 264.392C678.325 264.884 678.215 265.326 677.995 265.718C677.775 266.106 677.469 266.414 677.077 266.642C676.689 266.87 676.243 266.984 675.739 266.984ZM675.739 266.09C676.059 266.09 676.337 266.016 676.573 265.868C676.813 265.72 676.999 265.518 677.131 265.262C677.263 265.002 677.329 264.71 677.329 264.386C677.329 264.062 677.263 263.77 677.131 263.51C676.999 263.25 676.813 263.044 676.573 262.892C676.337 262.74 676.059 262.664 675.739 262.664C675.415 262.664 675.133 262.74 674.893 262.892C674.653 263.044 674.465 263.25 674.329 263.51C674.197 263.77 674.131 264.062 674.131 264.386C674.131 264.71 674.197 265.002 674.329 265.262C674.465 265.518 674.653 265.72 674.893 265.868C675.133 266.016 675.415 266.09 675.739 266.09ZM682.237 261.77C682.561 261.77 682.875 261.838 683.179 261.974C683.487 262.11 683.739 262.326 683.935 262.622C684.135 262.914 684.235 263.296 684.235 263.768V266.84H683.179V263.972C683.179 263.484 683.065 263.13 682.837 262.91C682.609 262.686 682.315 262.574 681.955 262.574C681.719 262.574 681.491 262.642 681.271 262.778C681.055 262.91 680.877 263.094 680.737 263.33C680.597 263.562 680.527 263.826 680.527 264.122V266.84H679.483V261.914H680.527V262.79C680.563 262.654 680.661 262.506 680.821 262.346C680.981 262.186 681.185 262.05 681.433 261.938C681.681 261.826 681.949 261.77 682.237 261.77ZM685.18 261.914H686.146V259.892H687.184V261.914H688.45V262.808H687.184V265.244C687.184 265.532 687.234 265.744 687.334 265.88C687.438 266.016 687.576 266.084 687.748 266.084C687.9 266.084 688.018 266.056 688.102 266C688.186 265.944 688.236 265.906 688.252 265.886L688.666 266.654C688.642 266.674 688.578 266.712 688.474 266.768C688.37 266.824 688.236 266.874 688.072 266.918C687.908 266.962 687.716 266.984 687.496 266.984C687.112 266.984 686.79 266.868 686.53 266.636C686.274 266.4 686.146 266.028 686.146 265.52V262.808H685.18V261.914ZM690.598 266.84H689.56V261.914H690.598V262.766H690.568C690.588 262.662 690.662 262.532 690.79 262.376C690.918 262.22 691.094 262.08 691.318 261.956C691.542 261.832 691.81 261.77 692.122 261.77C692.35 261.77 692.55 261.802 692.722 261.866C692.898 261.926 693.022 261.986 693.094 262.046L692.668 262.91C692.612 262.854 692.514 262.798 692.374 262.742C692.234 262.682 692.06 262.652 691.852 262.652C691.588 262.652 691.362 262.734 691.174 262.898C690.986 263.062 690.842 263.26 690.742 263.492C690.646 263.72 690.598 263.932 690.598 264.128V266.84ZM695.942 266.984C695.434 266.984 694.982 266.87 694.586 266.642C694.194 266.414 693.886 266.106 693.662 265.718C693.438 265.326 693.326 264.884 693.326 264.392C693.326 263.9 693.438 263.456 693.662 263.06C693.886 262.664 694.194 262.35 694.586 262.118C694.982 261.886 695.434 261.77 695.942 261.77C696.446 261.77 696.892 261.886 697.28 262.118C697.672 262.35 697.978 262.664 698.198 263.06C698.418 263.456 698.528 263.9 698.528 264.392C698.528 264.884 698.418 265.326 698.198 265.718C697.978 266.106 697.672 266.414 697.28 266.642C696.892 266.87 696.446 266.984 695.942 266.984ZM695.942 266.09C696.262 266.09 696.54 266.016 696.776 265.868C697.016 265.72 697.202 265.518 697.334 265.262C697.466 265.002 697.532 264.71 697.532 264.386C697.532 264.062 697.466 263.77 697.334 263.51C697.202 263.25 697.016 263.044 696.776 262.892C696.54 262.74 696.262 262.664 695.942 262.664C695.618 262.664 695.336 262.74 695.096 262.892C694.856 263.044 694.668 263.25 694.532 263.51C694.4 263.77 694.334 264.062 694.334 264.386C694.334 264.71 694.4 265.002 694.532 265.262C694.668 265.518 694.856 265.72 695.096 265.868C695.336 266.016 695.618 266.09 695.942 266.09ZM700.772 266.84H699.722V258.584H700.772V266.84ZM652.381 270.85H650.245V269.92H655.549V270.85H653.413V277.84H652.381V270.85ZM657.962 277.984C657.454 277.984 657.002 277.87 656.606 277.642C656.214 277.414 655.906 277.106 655.682 276.718C655.458 276.326 655.346 275.884 655.346 275.392C655.346 274.9 655.458 274.456 655.682 274.06C655.906 273.664 656.214 273.35 656.606 273.118C657.002 272.886 657.454 272.77 657.962 272.77C658.466 272.77 658.912 272.886 659.3 273.118C659.692 273.35 659.998 273.664 660.218 274.06C660.438 274.456 660.548 274.9 660.548 275.392C660.548 275.884 660.438 276.326 660.218 276.718C659.998 277.106 659.692 277.414 659.3 277.642C658.912 277.87 658.466 277.984 657.962 277.984ZM657.962 277.09C658.282 277.09 658.56 277.016 658.796 276.868C659.036 276.72 659.222 276.518 659.354 276.262C659.486 276.002 659.552 275.71 659.552 275.386C659.552 275.062 659.486 274.77 659.354 274.51C659.222 274.25 659.036 274.044 658.796 273.892C658.56 273.74 658.282 273.664 657.962 273.664C657.638 273.664 657.356 273.74 657.116 273.892C656.876 274.044 656.688 274.25 656.552 274.51C656.42 274.77 656.354 275.062 656.354 275.386C656.354 275.71 656.42 276.002 656.552 276.262C656.688 276.518 656.876 276.72 657.116 276.868C657.356 277.016 657.638 277.09 657.962 277.09ZM664.951 274.15L663.697 277.84H662.617L661.279 272.914H662.389L663.283 276.7L664.519 273.01H665.383L666.607 276.7L667.507 272.914H668.623L667.285 277.84H666.205L664.951 274.15ZM670.305 275.59C670.309 275.886 670.373 276.156 670.497 276.4C670.621 276.644 670.805 276.838 671.049 276.982C671.297 277.126 671.601 277.198 671.961 277.198C672.265 277.198 672.523 277.154 672.735 277.066C672.951 276.974 673.127 276.866 673.263 276.742C673.399 276.614 673.497 276.5 673.557 276.4L674.067 277.03C673.935 277.222 673.773 277.39 673.581 277.534C673.393 277.678 673.163 277.788 672.891 277.864C672.619 277.944 672.287 277.984 671.895 277.984C671.367 277.984 670.909 277.872 670.521 277.648C670.137 277.42 669.841 277.106 669.633 276.706C669.425 276.302 669.321 275.84 669.321 275.32C669.321 274.84 669.419 274.408 669.615 274.024C669.811 273.636 670.095 273.33 670.467 273.106C670.843 272.882 671.295 272.77 671.823 272.77C672.307 272.77 672.727 272.872 673.083 273.076C673.443 273.276 673.721 273.56 673.917 273.928C674.117 274.296 674.217 274.736 674.217 275.248C674.217 275.28 674.215 275.338 674.211 275.422C674.207 275.502 674.203 275.558 674.199 275.59H670.305ZM673.221 274.804C673.217 274.64 673.169 274.46 673.077 274.264C672.989 274.068 672.845 273.9 672.645 273.76C672.445 273.62 672.175 273.55 671.835 273.55C671.483 273.55 671.199 273.618 670.983 273.754C670.771 273.89 670.615 274.056 670.515 274.252C670.415 274.444 670.357 274.628 670.341 274.804H673.221ZM676.395 277.84H675.357V272.914H676.395V273.766H676.365C676.385 273.662 676.459 273.532 676.587 273.376C676.715 273.22 676.891 273.08 677.115 272.956C677.339 272.832 677.607 272.77 677.919 272.77C678.147 272.77 678.347 272.802 678.519 272.866C678.695 272.926 678.819 272.986 678.891 273.046L678.465 273.91C678.409 273.854 678.311 273.798 678.171 273.742C678.031 273.682 677.857 273.652 677.649 273.652C677.385 273.652 677.159 273.734 676.971 273.898C676.783 274.062 676.639 274.26 676.539 274.492C676.443 274.72 676.395 274.932 676.395 275.128V277.84Z" fill="black"/>
<path d="M82.5771 177.418V185.338H81.5571V179.62L81.6111 178.744L81.3951 179.71L79.4871 184.888H78.4731L76.5651 179.71L76.3551 178.744L76.4031 179.62V185.338H75.3771V177.418H76.7451L78.9051 183.634L78.9771 184.036L79.0551 183.634L81.2211 177.418H82.5771ZM86.5047 185.482C85.9967 185.482 85.5447 185.368 85.1487 185.14C84.7567 184.912 84.4487 184.604 84.2247 184.216C84.0007 183.824 83.8887 183.382 83.8887 182.89C83.8887 182.398 84.0007 181.954 84.2247 181.558C84.4487 181.162 84.7567 180.848 85.1487 180.616C85.5447 180.384 85.9967 180.268 86.5047 180.268C87.0087 180.268 87.4547 180.384 87.8427 180.616C88.2347 180.848 88.5407 181.162 88.7607 181.558C88.9807 181.954 89.0907 182.398 89.0907 182.89C89.0907 183.382 88.9807 183.824 88.7607 184.216C88.5407 184.604 88.2347 184.912 87.8427 185.14C87.4547 185.368 87.0087 185.482 86.5047 185.482ZM86.5047 184.588C86.8247 184.588 87.1027 184.514 87.3387 184.366C87.5787 184.218 87.7647 184.016 87.8967 183.76C88.0287 183.5 88.0947 183.208 88.0947 182.884C88.0947 182.56 88.0287 182.268 87.8967 182.008C87.7647 181.748 87.5787 181.542 87.3387 181.39C87.1027 181.238 86.8247 181.162 86.5047 181.162C86.1807 181.162 85.8987 181.238 85.6587 181.39C85.4187 181.542 85.2307 181.748 85.0947 182.008C84.9627 182.268 84.8967 182.56 84.8967 182.884C84.8967 183.208 84.9627 183.5 85.0947 183.76C85.2307 184.016 85.4187 184.218 85.6587 184.366C85.8987 184.514 86.1807 184.588 86.5047 184.588ZM91.2262 182.896C91.2262 183.412 91.3362 183.824 91.5562 184.132C91.7802 184.436 92.1222 184.588 92.5822 184.588C93.0462 184.588 93.3882 184.436 93.6082 184.132C93.8282 183.824 93.9382 183.412 93.9382 182.896V180.412H94.9702V183.04C94.9702 183.52 94.8762 183.944 94.6882 184.312C94.5042 184.68 94.2342 184.968 93.8782 185.176C93.5262 185.38 93.0942 185.482 92.5822 185.482C92.0742 185.482 91.6422 185.38 91.2862 185.176C90.9342 184.968 90.6642 184.68 90.4762 184.312C90.2922 183.944 90.2002 183.52 90.2002 183.04V180.412H91.2262V182.896ZM99.1428 180.268C99.4668 180.268 99.7808 180.336 100.085 180.472C100.393 180.608 100.645 180.824 100.841 181.12C101.041 181.412 101.141 181.794 101.141 182.266V185.338H100.085V182.47C100.085 181.982 99.9708 181.628 99.7428 181.408C99.5148 181.184 99.2208 181.072 98.8608 181.072C98.6248 181.072 98.3968 181.14 98.1768 181.276C97.9608 181.408 97.7828 181.592 97.6428 181.828C97.5028 182.06 97.4328 182.324 97.4328 182.62V185.338H96.3888V180.412H97.4328V181.288C97.4688 181.152 97.5668 181.004 97.7268 180.844C97.8868 180.684 98.0908 180.548 98.3388 180.436C98.5868 180.324 98.8548 180.268 99.1428 180.268ZM102.086 180.412H103.052V178.39H104.09V180.412H105.356V181.306H104.09V183.742C104.09 184.03 104.14 184.242 104.24 184.378C104.344 184.514 104.482 184.582 104.654 184.582C104.806 184.582 104.924 184.554 105.008 184.498C105.092 184.442 105.142 184.404 105.158 184.384L105.572 185.152C105.548 185.172 105.484 185.21 105.38 185.266C105.276 185.322 105.142 185.372 104.978 185.416C104.814 185.46 104.622 185.482 104.402 185.482C104.018 185.482 103.696 185.366 103.436 185.134C103.18 184.898 103.052 184.526 103.052 184.018V181.306H102.086V180.412ZM109.497 177.418H112.263C112.691 177.418 113.079 177.508 113.427 177.688C113.779 177.864 114.059 178.124 114.267 178.468C114.479 178.808 114.585 179.224 114.585 179.716C114.585 180.204 114.487 180.608 114.291 180.928C114.099 181.248 113.867 181.49 113.595 181.654C113.323 181.814 113.071 181.902 112.839 181.918L114.801 185.338H113.637L111.801 181.99H110.523V185.338H109.497V177.418ZM110.523 181.228H111.903C112.375 181.228 112.765 181.11 113.073 180.874C113.381 180.638 113.535 180.26 113.535 179.74C113.535 179.22 113.381 178.846 113.073 178.618C112.769 178.39 112.381 178.276 111.909 178.276H110.523V181.228ZM118.403 185.482C117.895 185.482 117.443 185.368 117.047 185.14C116.655 184.912 116.347 184.604 116.123 184.216C115.899 183.824 115.787 183.382 115.787 182.89C115.787 182.398 115.899 181.954 116.123 181.558C116.347 181.162 116.655 180.848 117.047 180.616C117.443 180.384 117.895 180.268 118.403 180.268C118.907 180.268 119.353 180.384 119.741 180.616C120.133 180.848 120.439 181.162 120.659 181.558C120.879 181.954 120.989 182.398 120.989 182.89C120.989 183.382 120.879 183.824 120.659 184.216C120.439 184.604 120.133 184.912 119.741 185.14C119.353 185.368 118.907 185.482 118.403 185.482ZM118.403 184.588C118.723 184.588 119.001 184.514 119.237 184.366C119.477 184.218 119.663 184.016 119.795 183.76C119.927 183.5 119.993 183.208 119.993 182.884C119.993 182.56 119.927 182.268 119.795 182.008C119.663 181.748 119.477 181.542 119.237 181.39C119.001 181.238 118.723 181.162 118.403 181.162C118.079 181.162 117.797 181.238 117.557 181.39C117.317 181.542 117.129 181.748 116.993 182.008C116.861 182.268 116.795 182.56 116.795 182.884C116.795 183.208 116.861 183.5 116.993 183.76C117.129 184.016 117.317 184.218 117.557 184.366C117.797 184.514 118.079 184.588 118.403 184.588ZM124.193 184.384L125.855 180.412H126.899L123.575 187.834H122.519L123.635 185.338L121.607 180.412H122.669L124.193 184.384ZM131.65 185.338V184.378C131.618 184.478 131.524 184.616 131.368 184.792C131.216 184.968 131.006 185.128 130.738 185.272C130.474 185.412 130.162 185.482 129.802 185.482C129.346 185.482 128.932 185.374 128.56 185.158C128.192 184.942 127.898 184.64 127.678 184.252C127.462 183.86 127.354 183.402 127.354 182.878C127.354 182.354 127.462 181.898 127.678 181.51C127.898 181.118 128.192 180.814 128.56 180.598C128.932 180.378 129.346 180.268 129.802 180.268C130.158 180.268 130.466 180.332 130.726 180.46C130.99 180.588 131.2 180.736 131.356 180.904C131.516 181.072 131.61 181.216 131.638 181.336V180.412H132.67V185.338H131.65ZM128.386 182.878C128.386 183.234 128.464 183.542 128.62 183.802C128.776 184.062 128.978 184.264 129.226 184.408C129.478 184.548 129.746 184.618 130.03 184.618C130.334 184.618 130.606 184.546 130.846 184.402C131.086 184.258 131.276 184.056 131.416 183.796C131.556 183.532 131.626 183.226 131.626 182.878C131.626 182.53 131.556 182.226 131.416 181.966C131.276 181.702 131.086 181.498 130.846 181.354C130.606 181.206 130.334 181.132 130.03 181.132C129.746 181.132 129.478 181.204 129.226 181.348C128.978 181.492 128.776 181.694 128.62 181.954C128.464 182.214 128.386 182.522 128.386 182.878ZM135.151 185.338H134.101V177.082H135.151V185.338ZM86.3981 188.418H87.4241V193.338C87.4241 193.99 87.2941 194.552 87.0341 195.024C86.7741 195.492 86.4161 195.852 85.9601 196.104C85.5081 196.356 84.9901 196.482 84.4061 196.482C83.8221 196.482 83.3001 196.356 82.8401 196.104C82.3841 195.852 82.0261 195.492 81.7661 195.024C81.5061 194.552 81.3761 193.99 81.3761 193.338V188.418H82.3961V193.284C82.3961 193.744 82.4841 194.142 82.6601 194.478C82.8361 194.814 83.0761 195.074 83.3801 195.258C83.6841 195.438 84.0261 195.528 84.4061 195.528C84.7861 195.528 85.1261 195.438 85.4261 195.258C85.7261 195.074 85.9621 194.814 86.1341 194.478C86.3101 194.142 86.3981 193.744 86.3981 193.284V188.418ZM91.6252 191.268C91.9492 191.268 92.2632 191.336 92.5672 191.472C92.8752 191.608 93.1272 191.824 93.3232 192.12C93.5232 192.412 93.6232 192.794 93.6232 193.266V196.338H92.5672V193.47C92.5672 192.982 92.4532 192.628 92.2252 192.408C91.9972 192.184 91.7032 192.072 91.3432 192.072C91.1072 192.072 90.8792 192.14 90.6592 192.276C90.4432 192.408 90.2652 192.592 90.1252 192.828C89.9852 193.06 89.9152 193.324 89.9152 193.62V196.338H88.8712V191.412H89.9152V192.288C89.9512 192.152 90.0492 192.004 90.2092 191.844C90.3692 191.684 90.5732 191.548 90.8212 191.436C91.0692 191.324 91.3372 191.268 91.6252 191.268ZM95.1024 196.338V191.412H96.1464V196.338H95.1024ZM95.6364 189.726C95.4484 189.726 95.2864 189.66 95.1504 189.528C95.0184 189.392 94.9524 189.23 94.9524 189.042C94.9524 188.854 95.0184 188.692 95.1504 188.556C95.2864 188.42 95.4484 188.352 95.6364 188.352C95.7604 188.352 95.8744 188.384 95.9784 188.448C96.0864 188.512 96.1724 188.596 96.2364 188.7C96.3004 188.8 96.3324 188.914 96.3324 189.042C96.3324 189.23 96.2644 189.392 96.1284 189.528C95.9924 189.66 95.8284 189.726 95.6364 189.726ZM97.2503 191.412H98.3723L99.9803 195.372L101.588 191.412H102.704L100.598 196.338H99.3683L97.2503 191.412ZM104.338 194.088C104.342 194.384 104.406 194.654 104.53 194.898C104.654 195.142 104.838 195.336 105.082 195.48C105.33 195.624 105.634 195.696 105.994 195.696C106.298 195.696 106.556 195.652 106.768 195.564C106.984 195.472 107.16 195.364 107.296 195.24C107.432 195.112 107.53 194.998 107.59 194.898L108.1 195.528C107.968 195.72 107.806 195.888 107.614 196.032C107.426 196.176 107.196 196.286 106.924 196.362C106.652 196.442 106.32 196.482 105.928 196.482C105.4 196.482 104.942 196.37 104.554 196.146C104.17 195.918 103.874 195.604 103.666 195.204C103.458 194.8 103.354 194.338 103.354 193.818C103.354 193.338 103.452 192.906 103.648 192.522C103.844 192.134 104.128 191.828 104.5 191.604C104.876 191.38 105.328 191.268 105.856 191.268C106.34 191.268 106.76 191.37 107.116 191.574C107.476 191.774 107.754 192.058 107.95 192.426C108.15 192.794 108.25 193.234 108.25 193.746C108.25 193.778 108.248 193.836 108.244 193.92C108.24 194 108.236 194.056 108.232 194.088H104.338ZM107.254 193.302C107.25 193.138 107.202 192.958 107.11 192.762C107.022 192.566 106.878 192.398 106.678 192.258C106.478 192.118 106.208 192.048 105.868 192.048C105.516 192.048 105.232 192.116 105.016 192.252C104.804 192.388 104.648 192.554 104.548 192.75C104.448 192.942 104.39 193.126 104.374 193.302H107.254ZM110.428 196.338H109.39V191.412H110.428V192.264H110.398C110.418 192.16 110.492 192.03 110.62 191.874C110.748 191.718 110.924 191.578 111.148 191.454C111.372 191.33 111.64 191.268 111.952 191.268C112.18 191.268 112.38 191.3 112.552 191.364C112.728 191.424 112.852 191.484 112.924 191.544L112.498 192.408C112.442 192.352 112.344 192.296 112.204 192.24C112.064 192.18 111.89 192.15 111.682 192.15C111.418 192.15 111.192 192.232 111.004 192.396C110.816 192.56 110.672 192.758 110.572 192.99C110.476 193.218 110.428 193.43 110.428 193.626V196.338ZM115.364 191.268C115.62 191.268 115.858 191.294 116.078 191.346C116.302 191.398 116.494 191.46 116.654 191.532C116.818 191.604 116.934 191.668 117.002 191.724L116.588 192.384C116.508 192.312 116.364 192.232 116.156 192.144C115.948 192.052 115.716 192.006 115.46 192.006C115.18 192.006 114.942 192.062 114.746 192.174C114.55 192.282 114.452 192.44 114.452 192.648C114.452 192.856 114.552 193.022 114.752 193.146C114.956 193.266 115.228 193.366 115.568 193.446C115.84 193.51 116.094 193.596 116.33 193.704C116.57 193.812 116.764 193.962 116.912 194.154C117.06 194.342 117.134 194.594 117.134 194.91C117.134 195.198 117.074 195.444 116.954 195.648C116.834 195.848 116.672 196.01 116.468 196.134C116.264 196.254 116.036 196.342 115.784 196.398C115.532 196.454 115.276 196.482 115.016 196.482C114.712 196.482 114.438 196.45 114.194 196.386C113.95 196.326 113.744 196.254 113.576 196.17C113.412 196.082 113.292 196.006 113.216 195.942L113.63 195.198C113.734 195.298 113.904 195.404 114.14 195.516C114.38 195.628 114.652 195.684 114.956 195.684C115.292 195.684 115.564 195.614 115.772 195.474C115.98 195.33 116.084 195.144 116.084 194.916C116.084 194.744 116.034 194.606 115.934 194.502C115.834 194.398 115.7 194.314 115.532 194.25C115.364 194.186 115.18 194.13 114.98 194.082C114.788 194.038 114.6 193.98 114.416 193.908C114.236 193.836 114.07 193.744 113.918 193.632C113.77 193.516 113.652 193.376 113.564 193.212C113.476 193.044 113.432 192.848 113.432 192.624C113.432 192.34 113.522 192.098 113.702 191.898C113.882 191.694 114.118 191.538 114.41 191.43C114.702 191.322 115.02 191.268 115.364 191.268ZM118.458 196.338V191.412H119.502V196.338H118.458ZM118.992 189.726C118.804 189.726 118.642 189.66 118.506 189.528C118.374 189.392 118.308 189.23 118.308 189.042C118.308 188.854 118.374 188.692 118.506 188.556C118.642 188.42 118.804 188.352 118.992 188.352C119.116 188.352 119.23 188.384 119.334 188.448C119.442 188.512 119.528 188.596 119.592 188.7C119.656 188.8 119.688 188.914 119.688 189.042C119.688 189.23 119.62 189.392 119.484 189.528C119.348 189.66 119.184 189.726 118.992 189.726ZM120.678 191.412H121.644V189.39H122.682V191.412H123.948V192.306H122.682V194.742C122.682 195.03 122.732 195.242 122.832 195.378C122.936 195.514 123.074 195.582 123.246 195.582C123.398 195.582 123.516 195.554 123.6 195.498C123.684 195.442 123.734 195.404 123.75 195.384L124.164 196.152C124.14 196.172 124.076 196.21 123.972 196.266C123.868 196.322 123.734 196.372 123.57 196.416C123.406 196.46 123.214 196.482 122.994 196.482C122.61 196.482 122.288 196.366 122.028 196.134C121.772 195.898 121.644 195.526 121.644 195.018V192.306H120.678V191.412ZM127.116 195.384L128.778 191.412H129.822L126.498 198.834H125.442L126.558 196.338L124.53 191.412H125.592L127.116 195.384ZM80.4043 199.274C80.8603 199.274 81.2523 199.326 81.5803 199.43C81.9123 199.534 82.1723 199.644 82.3603 199.76C82.5523 199.876 82.6663 199.952 82.7023 199.988L82.1743 200.834C82.1143 200.782 82.0083 200.708 81.8563 200.612C81.7043 200.512 81.5143 200.424 81.2863 200.348C81.0583 200.268 80.7983 200.228 80.5063 200.228C80.0543 200.228 79.6963 200.32 79.4323 200.504C79.1723 200.684 79.0423 200.94 79.0423 201.272C79.0423 201.496 79.1103 201.694 79.2463 201.866C79.3863 202.034 79.5823 202.188 79.8343 202.328C80.0863 202.468 80.3803 202.612 80.7163 202.76C80.9923 202.876 81.2623 203.008 81.5263 203.156C81.7943 203.304 82.0363 203.478 82.2523 203.678C82.4723 203.878 82.6463 204.11 82.7743 204.374C82.9063 204.638 82.9723 204.942 82.9723 205.286C82.9723 205.626 82.9023 205.932 82.7623 206.204C82.6263 206.476 82.4323 206.708 82.1803 206.9C81.9323 207.088 81.6423 207.232 81.3103 207.332C80.9783 207.432 80.6203 207.482 80.2363 207.482C79.7523 207.482 79.3143 207.422 78.9223 207.302C78.5343 207.182 78.2203 207.056 77.9803 206.924C77.7443 206.792 77.6083 206.71 77.5723 206.678L78.1303 205.796C78.1783 205.836 78.2663 205.896 78.3943 205.976C78.5223 206.052 78.6803 206.132 78.8683 206.216C79.0563 206.3 79.2683 206.372 79.5043 206.432C79.7403 206.488 79.9923 206.516 80.2603 206.516C80.7963 206.516 81.2023 206.396 81.4783 206.156C81.7543 205.916 81.8923 205.608 81.8923 205.232C81.8923 204.944 81.8043 204.696 81.6283 204.488C81.4523 204.28 81.2183 204.094 80.9263 203.93C80.6343 203.766 80.3123 203.608 79.9603 203.456C79.6003 203.292 79.2703 203.112 78.9703 202.916C78.6703 202.72 78.4283 202.486 78.2443 202.214C78.0643 201.938 77.9743 201.606 77.9743 201.218C77.9743 200.834 78.0823 200.496 78.2983 200.204C78.5183 199.912 78.8123 199.684 79.1803 199.52C79.5523 199.356 79.9603 199.274 80.4043 199.274ZM85.3042 209.834H84.2662V202.412H85.3222V203.336C85.3582 203.212 85.4582 203.066 85.6222 202.898C85.7862 202.73 86.0062 202.584 86.2822 202.46C86.5622 202.332 86.8822 202.268 87.2422 202.268C87.6982 202.268 88.1022 202.378 88.4542 202.598C88.8102 202.814 89.0882 203.118 89.2882 203.51C89.4922 203.898 89.5942 204.354 89.5942 204.878C89.5942 205.402 89.4902 205.86 89.2822 206.252C89.0742 206.64 88.7902 206.942 88.4302 207.158C88.0742 207.374 87.6662 207.482 87.2062 207.482C86.8342 207.482 86.5082 207.412 86.2282 207.272C85.9522 207.132 85.7342 206.974 85.5742 206.798C85.4182 206.622 85.3282 206.482 85.3042 206.378V209.834ZM88.5622 204.878C88.5622 204.522 88.4882 204.214 88.3402 203.954C88.1962 203.694 88.0042 203.492 87.7642 203.348C87.5242 203.204 87.2642 203.132 86.9842 203.132C86.6762 203.132 86.3962 203.206 86.1442 203.354C85.8922 203.498 85.6922 203.702 85.5442 203.966C85.3962 204.226 85.3222 204.53 85.3222 204.878C85.3222 205.226 85.3962 205.532 85.5442 205.796C85.6922 206.056 85.8922 206.258 86.1442 206.402C86.3962 206.546 86.6762 206.618 86.9842 206.618C87.2642 206.618 87.5242 206.548 87.7642 206.408C88.0042 206.264 88.1962 206.062 88.3402 205.802C88.4882 205.542 88.5622 205.234 88.5622 204.878ZM91.7078 207.338H90.6698V202.412H91.7078V203.264H91.6778C91.6978 203.16 91.7718 203.03 91.8998 202.874C92.0278 202.718 92.2038 202.578 92.4278 202.454C92.6518 202.33 92.9198 202.268 93.2318 202.268C93.4598 202.268 93.6598 202.3 93.8318 202.364C94.0078 202.424 94.1318 202.484 94.2038 202.544L93.7778 203.408C93.7218 203.352 93.6238 203.296 93.4838 203.24C93.3438 203.18 93.1698 203.15 92.9618 203.15C92.6978 203.15 92.4718 203.232 92.2838 203.396C92.0958 203.56 91.9518 203.758 91.8518 203.99C91.7558 204.218 91.7078 204.43 91.7078 204.626V207.338ZM94.9911 207.338V202.412H96.0351V207.338H94.9911ZM95.5251 200.726C95.3371 200.726 95.1751 200.66 95.0391 200.528C94.9071 200.392 94.8411 200.23 94.8411 200.042C94.8411 199.854 94.9071 199.692 95.0391 199.556C95.1751 199.42 95.3371 199.352 95.5251 199.352C95.6491 199.352 95.7631 199.384 95.8671 199.448C95.9751 199.512 96.0611 199.596 96.1251 199.7C96.1891 199.8 96.2211 199.914 96.2211 200.042C96.2211 200.23 96.1531 200.392 96.0171 200.528C95.8811 200.66 95.7171 200.726 95.5251 200.726ZM100.385 202.268C100.709 202.268 101.023 202.336 101.327 202.472C101.635 202.608 101.887 202.824 102.083 203.12C102.283 203.412 102.383 203.794 102.383 204.266V207.338H101.327V204.47C101.327 203.982 101.213 203.628 100.985 203.408C100.757 203.184 100.463 203.072 100.103 203.072C99.867 203.072 99.639 203.14 99.419 203.276C99.203 203.408 99.025 203.592 98.885 203.828C98.745 204.06 98.675 204.324 98.675 204.62V207.338H97.631V202.412H98.675V203.288C98.711 203.152 98.809 203.004 98.969 202.844C99.129 202.684 99.333 202.548 99.581 202.436C99.829 202.324 100.097 202.268 100.385 202.268ZM106.1 209.972C105.712 209.972 105.36 209.932 105.044 209.852C104.732 209.772 104.458 209.658 104.222 209.51C103.99 209.366 103.804 209.196 103.664 209L104.348 208.346C104.424 208.45 104.526 208.56 104.654 208.676C104.786 208.796 104.964 208.898 105.188 208.982C105.412 209.066 105.704 209.108 106.064 209.108C106.416 209.108 106.714 209.032 106.958 208.88C107.202 208.732 107.388 208.53 107.516 208.274C107.644 208.018 107.708 207.73 107.708 207.41V207.248H108.728V207.476C108.728 208.02 108.61 208.476 108.374 208.844C108.142 209.216 107.828 209.496 107.432 209.684C107.036 209.876 106.592 209.972 106.1 209.972ZM107.708 207.338V206.378C107.676 206.478 107.582 206.616 107.426 206.792C107.274 206.968 107.064 207.128 106.796 207.272C106.532 207.412 106.22 207.482 105.86 207.482C105.404 207.482 104.99 207.374 104.618 207.158C104.25 206.942 103.956 206.64 103.736 206.252C103.52 205.86 103.412 205.402 103.412 204.878C103.412 204.354 103.52 203.898 103.736 203.51C103.956 203.118 104.25 202.814 104.618 202.598C104.99 202.378 105.404 202.268 105.86 202.268C106.216 202.268 106.524 202.332 106.784 202.46C107.048 202.588 107.258 202.736 107.414 202.904C107.574 203.072 107.668 203.216 107.696 203.336V202.412H108.728V207.338H107.708ZM104.444 204.878C104.444 205.234 104.522 205.542 104.678 205.802C104.834 206.062 105.036 206.264 105.284 206.408C105.536 206.548 105.804 206.618 106.088 206.618C106.392 206.618 106.664 206.546 106.904 206.402C107.144 206.258 107.334 206.056 107.474 205.796C107.614 205.532 107.684 205.226 107.684 204.878C107.684 204.53 107.614 204.226 107.474 203.966C107.334 203.702 107.144 203.498 106.904 203.354C106.664 203.206 106.392 203.132 106.088 203.132C105.804 203.132 105.536 203.204 105.284 203.348C105.036 203.492 104.834 203.694 104.678 203.954C104.522 204.214 104.444 204.522 104.444 204.878ZM110.146 207.338V199.082H111.202V203.336C111.226 203.212 111.32 203.066 111.484 202.898C111.648 202.73 111.868 202.584 112.144 202.46C112.42 202.332 112.738 202.268 113.098 202.268C113.558 202.268 113.966 202.378 114.322 202.598C114.678 202.814 114.958 203.118 115.162 203.51C115.37 203.898 115.474 204.354 115.474 204.878C115.474 205.402 115.37 205.86 115.162 206.252C114.958 206.64 114.678 206.942 114.322 207.158C113.966 207.374 113.558 207.482 113.098 207.482C112.758 207.482 112.45 207.418 112.174 207.29C111.902 207.162 111.68 207.012 111.508 206.84C111.336 206.668 111.228 206.514 111.184 206.378V207.338H110.146ZM114.436 204.878C114.436 204.522 114.364 204.214 114.22 203.954C114.076 203.694 113.884 203.492 113.644 203.348C113.408 203.204 113.148 203.132 112.864 203.132C112.556 203.132 112.276 203.206 112.024 203.354C111.772 203.498 111.572 203.702 111.424 203.966C111.276 204.226 111.202 204.53 111.202 204.878C111.202 205.226 111.276 205.532 111.424 205.796C111.572 206.056 111.772 206.258 112.024 206.402C112.276 206.546 112.556 206.618 112.864 206.618C113.148 206.618 113.408 206.548 113.644 206.408C113.884 206.264 114.076 206.062 114.22 205.802C114.364 205.542 114.436 205.234 114.436 204.878ZM120.423 207.338V206.378C120.391 206.478 120.297 206.616 120.141 206.792C119.989 206.968 119.779 207.128 119.511 207.272C119.247 207.412 118.935 207.482 118.575 207.482C118.119 207.482 117.705 207.374 117.333 207.158C116.965 206.942 116.671 206.64 116.451 206.252C116.235 205.86 116.127 205.402 116.127 204.878C116.127 204.354 116.235 203.898 116.451 203.51C116.671 203.118 116.965 202.814 117.333 202.598C117.705 202.378 118.119 202.268 118.575 202.268C118.931 202.268 119.239 202.332 119.499 202.46C119.763 202.588 119.973 202.736 120.129 202.904C120.289 203.072 120.383 203.216 120.411 203.336V202.412H121.443V207.338H120.423ZM117.159 204.878C117.159 205.234 117.237 205.542 117.393 205.802C117.549 206.062 117.751 206.264 117.999 206.408C118.251 206.548 118.519 206.618 118.803 206.618C119.107 206.618 119.379 206.546 119.619 206.402C119.859 206.258 120.049 206.056 120.189 205.796C120.329 205.532 120.399 205.226 120.399 204.878C120.399 204.53 120.329 204.226 120.189 203.966C120.049 203.702 119.859 203.498 119.619 203.354C119.379 203.206 119.107 203.132 118.803 203.132C118.519 203.132 118.251 203.204 117.999 203.348C117.751 203.492 117.549 203.694 117.393 203.954C117.237 204.214 117.159 204.522 117.159 204.878ZM125.592 202.268C125.916 202.268 126.23 202.336 126.534 202.472C126.842 202.608 127.094 202.824 127.29 203.12C127.49 203.412 127.59 203.794 127.59 204.266V207.338H126.534V204.47C126.534 203.982 126.42 203.628 126.192 203.408C125.964 203.184 125.67 203.072 125.31 203.072C125.074 203.072 124.846 203.14 124.626 203.276C124.41 203.408 124.232 203.592 124.092 203.828C123.952 204.06 123.882 204.324 123.882 204.62V207.338H122.838V202.412H123.882V203.288C123.918 203.152 124.016 203.004 124.176 202.844C124.336 202.684 124.54 202.548 124.788 202.436C125.036 202.324 125.304 202.268 125.592 202.268ZM131.967 202.412H133.227L130.683 204.758L133.395 207.338H132.117L129.831 205.154V207.338H128.787V199.082H129.831V204.362L131.967 202.412ZM89.6828 217.468C90.1748 217.468 90.6008 217.4 90.9608 217.264C91.3248 217.128 91.5828 216.996 91.7348 216.868L92.1848 217.75C92.0048 217.91 91.6908 218.072 91.2428 218.236C90.7988 218.4 90.2648 218.482 89.6408 218.482C89.0568 218.482 88.5148 218.378 88.0148 218.17C87.5148 217.962 87.0768 217.672 86.7008 217.3C86.3288 216.928 86.0368 216.494 85.8248 215.998C85.6168 215.502 85.5128 214.966 85.5128 214.39C85.5128 213.814 85.6168 213.276 85.8248 212.776C86.0328 212.276 86.3228 211.84 86.6948 211.468C87.0708 211.092 87.5088 210.8 88.0088 210.592C88.5128 210.38 89.0568 210.274 89.6408 210.274C90.2648 210.274 90.7988 210.356 91.2428 210.52C91.6908 210.684 92.0048 210.846 92.1848 211.006L91.7348 211.888C91.5828 211.756 91.3248 211.624 90.9608 211.492C90.6008 211.356 90.1748 211.288 89.6828 211.288C89.2348 211.288 88.8248 211.364 88.4528 211.516C88.0808 211.668 87.7568 211.884 87.4808 212.164C87.2088 212.44 86.9968 212.766 86.8448 213.142C86.6968 213.518 86.6228 213.928 86.6228 214.372C86.6228 214.82 86.6968 215.234 86.8448 215.614C86.9968 215.99 87.2088 216.318 87.4808 216.598C87.7568 216.874 88.0808 217.088 88.4528 217.24C88.8248 217.392 89.2348 217.468 89.6828 217.468ZM97.3488 218.338V217.378C97.3168 217.478 97.2228 217.616 97.0668 217.792C96.9148 217.968 96.7048 218.128 96.4368 218.272C96.1728 218.412 95.8608 218.482 95.5008 218.482C95.0448 218.482 94.6308 218.374 94.2588 218.158C93.8908 217.942 93.5968 217.64 93.3768 217.252C93.1608 216.86 93.0528 216.402 93.0528 215.878C93.0528 215.354 93.1608 214.898 93.3768 214.51C93.5968 214.118 93.8908 213.814 94.2588 213.598C94.6308 213.378 95.0448 213.268 95.5008 213.268C95.8568 213.268 96.1648 213.332 96.4248 213.46C96.6888 213.588 96.8988 213.736 97.0548 213.904C97.2148 214.072 97.3088 214.216 97.3368 214.336V213.412H98.3688V218.338H97.3488ZM94.0848 215.878C94.0848 216.234 94.1628 216.542 94.3188 216.802C94.4748 217.062 94.6768 217.264 94.9248 217.408C95.1768 217.548 95.4448 217.618 95.7288 217.618C96.0328 217.618 96.3048 217.546 96.5448 217.402C96.7848 217.258 96.9748 217.056 97.1148 216.796C97.2548 216.532 97.3248 216.226 97.3248 215.878C97.3248 215.53 97.2548 215.226 97.1148 214.966C96.9748 214.702 96.7848 214.498 96.5448 214.354C96.3048 214.206 96.0328 214.132 95.7288 214.132C95.4448 214.132 95.1768 214.204 94.9248 214.348C94.6768 214.492 94.4748 214.694 94.3188 214.954C94.1628 215.214 94.0848 215.522 94.0848 215.878ZM105.674 213.268C106.038 213.268 106.35 213.348 106.61 213.508C106.87 213.664 107.068 213.904 107.204 214.228C107.344 214.552 107.414 214.966 107.414 215.47V218.338H106.382V215.68C106.382 215.148 106.308 214.748 106.16 214.48C106.012 214.212 105.742 214.078 105.35 214.078C105.142 214.078 104.942 214.136 104.75 214.252C104.562 214.364 104.406 214.538 104.282 214.774C104.162 215.01 104.102 215.312 104.102 215.68V218.338H103.13V215.68C103.13 215.148 103.038 214.748 102.854 214.48C102.67 214.212 102.412 214.078 102.08 214.078C101.868 214.078 101.668 214.134 101.48 214.246C101.296 214.354 101.146 214.526 101.03 214.762C100.914 214.998 100.856 215.304 100.856 215.68V218.338H99.8178V213.412H100.856V214.168C100.9 214.044 100.994 213.912 101.138 213.772C101.286 213.632 101.474 213.514 101.702 213.418C101.934 213.318 102.192 213.268 102.476 213.268C102.772 213.268 103.02 213.328 103.22 213.448C103.42 213.568 103.578 213.716 103.694 213.892C103.81 214.064 103.89 214.23 103.934 214.39C103.99 214.218 104.098 214.046 104.258 213.874C104.418 213.698 104.62 213.554 104.864 213.442C105.108 213.326 105.378 213.268 105.674 213.268ZM109.914 220.834H108.876V213.412H109.932V214.336C109.968 214.212 110.068 214.066 110.232 213.898C110.396 213.73 110.616 213.584 110.892 213.46C111.172 213.332 111.492 213.268 111.852 213.268C112.308 213.268 112.712 213.378 113.064 213.598C113.42 213.814 113.698 214.118 113.898 214.51C114.102 214.898 114.204 215.354 114.204 215.878C114.204 216.402 114.1 216.86 113.892 217.252C113.684 217.64 113.4 217.942 113.04 218.158C112.684 218.374 112.276 218.482 111.816 218.482C111.444 218.482 111.118 218.412 110.838 218.272C110.562 218.132 110.344 217.974 110.184 217.798C110.028 217.622 109.938 217.482 109.914 217.378V220.834ZM113.172 215.878C113.172 215.522 113.098 215.214 112.95 214.954C112.806 214.694 112.614 214.492 112.374 214.348C112.134 214.204 111.874 214.132 111.594 214.132C111.286 214.132 111.006 214.206 110.754 214.354C110.502 214.498 110.302 214.702 110.154 214.966C110.006 215.226 109.932 215.53 109.932 215.878C109.932 216.226 110.006 216.532 110.154 216.796C110.302 217.056 110.502 217.258 110.754 217.402C111.006 217.546 111.286 217.618 111.594 217.618C111.874 217.618 112.134 217.548 112.374 217.408C112.614 217.264 112.806 217.062 112.95 216.802C113.098 216.542 113.172 216.234 113.172 215.878ZM116.269 215.896C116.269 216.412 116.379 216.824 116.599 217.132C116.823 217.436 117.165 217.588 117.625 217.588C118.089 217.588 118.431 217.436 118.651 217.132C118.871 216.824 118.981 216.412 118.981 215.896V213.412H120.013V216.04C120.013 216.52 119.919 216.944 119.731 217.312C119.547 217.68 119.277 217.968 118.921 218.176C118.569 218.38 118.137 218.482 117.625 218.482C117.117 218.482 116.685 218.38 116.329 218.176C115.977 217.968 115.707 217.68 115.519 217.312C115.335 216.944 115.243 216.52 115.243 216.04V213.412H116.269V215.896ZM123.245 213.268C123.501 213.268 123.739 213.294 123.959 213.346C124.183 213.398 124.375 213.46 124.535 213.532C124.699 213.604 124.815 213.668 124.883 213.724L124.469 214.384C124.389 214.312 124.245 214.232 124.037 214.144C123.829 214.052 123.597 214.006 123.341 214.006C123.061 214.006 122.823 214.062 122.627 214.174C122.431 214.282 122.333 214.44 122.333 214.648C122.333 214.856 122.433 215.022 122.633 215.146C122.837 215.266 123.109 215.366 123.449 215.446C123.721 215.51 123.975 215.596 124.211 215.704C124.451 215.812 124.645 215.962 124.793 216.154C124.941 216.342 125.015 216.594 125.015 216.91C125.015 217.198 124.955 217.444 124.835 217.648C124.715 217.848 124.553 218.01 124.349 218.134C124.145 218.254 123.917 218.342 123.665 218.398C123.413 218.454 123.157 218.482 122.897 218.482C122.593 218.482 122.319 218.45 122.075 218.386C121.831 218.326 121.625 218.254 121.457 218.17C121.293 218.082 121.173 218.006 121.097 217.942L121.511 217.198C121.615 217.298 121.785 217.404 122.021 217.516C122.261 217.628 122.533 217.684 122.837 217.684C123.173 217.684 123.445 217.614 123.653 217.474C123.861 217.33 123.965 217.144 123.965 216.916C123.965 216.744 123.915 216.606 123.815 216.502C123.715 216.398 123.581 216.314 123.413 216.25C123.245 216.186 123.061 216.13 122.861 216.082C122.669 216.038 122.481 215.98 122.297 215.908C122.117 215.836 121.951 215.744 121.799 215.632C121.651 215.516 121.533 215.376 121.445 215.212C121.357 215.044 121.313 214.848 121.313 214.624C121.313 214.34 121.403 214.098 121.583 213.898C121.763 213.694 121.999 213.538 122.291 213.43C122.583 213.322 122.901 213.268 123.245 213.268Z" fill="black"/>
<path d="M409.934 195.468C410.426 195.468 410.852 195.4 411.212 195.264C411.576 195.128 411.834 194.996 411.986 194.868L412.436 195.75C412.256 195.91 411.942 196.072 411.494 196.236C411.05 196.4 410.516 196.482 409.892 196.482C409.308 196.482 408.766 196.378 408.266 196.17C407.766 195.962 407.328 195.672 406.952 195.3C406.58 194.928 406.288 194.494 406.076 193.998C405.868 193.502 405.764 192.966 405.764 192.39C405.764 191.814 405.868 191.276 406.076 190.776C406.284 190.276 406.574 189.84 406.946 189.468C407.322 189.092 407.76 188.8 408.26 188.592C408.764 188.38 409.308 188.274 409.892 188.274C410.516 188.274 411.05 188.356 411.494 188.52C411.942 188.684 412.256 188.846 412.436 189.006L411.986 189.888C411.834 189.756 411.576 189.624 411.212 189.492C410.852 189.356 410.426 189.288 409.934 189.288C409.486 189.288 409.076 189.364 408.704 189.516C408.332 189.668 408.008 189.884 407.732 190.164C407.46 190.44 407.248 190.766 407.096 191.142C406.948 191.518 406.874 191.928 406.874 192.372C406.874 192.82 406.948 193.234 407.096 193.614C407.248 193.99 407.46 194.318 407.732 194.598C408.008 194.874 408.332 195.088 408.704 195.24C409.076 195.392 409.486 195.468 409.934 195.468ZM416.07 188.418H417.138L420.066 196.338H418.968L418.284 194.43H414.924L414.228 196.338H413.13L416.07 188.418ZM415.254 193.506H417.96L416.616 189.678H416.598L415.254 193.506ZM423.597 196.338H422.385L419.487 188.418H420.645L422.991 195.09L425.349 188.418H426.501L423.597 196.338ZM427.152 194.058V193.152H430.242V194.058H427.152ZM432.436 192.372C432.436 192.96 432.558 193.49 432.802 193.962C433.05 194.434 433.39 194.81 433.822 195.09C434.254 195.366 434.75 195.504 435.31 195.504C435.874 195.504 436.37 195.366 436.798 195.09C437.23 194.81 437.568 194.434 437.812 193.962C438.056 193.49 438.178 192.96 438.178 192.372C438.178 191.784 438.056 191.256 437.812 190.788C437.568 190.316 437.23 189.942 436.798 189.666C436.37 189.39 435.874 189.252 435.31 189.252C434.75 189.252 434.254 189.39 433.822 189.666C433.39 189.942 433.05 190.316 432.802 190.788C432.558 191.256 432.436 191.784 432.436 192.372ZM431.374 192.372C431.374 191.796 431.472 191.26 431.668 190.764C431.868 190.264 432.146 189.828 432.502 189.456C432.858 189.084 433.274 188.794 433.75 188.586C434.23 188.378 434.75 188.274 435.31 188.274C435.874 188.274 436.394 188.378 436.87 188.586C437.35 188.794 437.766 189.084 438.118 189.456C438.474 189.828 438.75 190.264 438.946 190.764C439.142 191.26 439.24 191.796 439.24 192.372C439.24 192.952 439.142 193.492 438.946 193.992C438.754 194.488 438.48 194.924 438.124 195.3C437.772 195.672 437.358 195.962 436.882 196.17C436.406 196.378 435.882 196.482 435.31 196.482C434.738 196.482 434.21 196.378 433.726 196.17C433.246 195.962 432.83 195.672 432.478 195.3C432.126 194.924 431.854 194.488 431.662 193.992C431.47 193.492 431.374 192.952 431.374 192.372ZM442.415 192.336L445.649 196.338H444.413L441.461 192.678V196.338H440.435V188.418H441.461V192.048L444.221 188.418H445.403L442.415 192.336ZM415.203 203.036H419.199V203.468C419.199 204.02 419.103 204.54 418.911 205.028C418.719 205.512 418.447 205.938 418.095 206.306C417.747 206.674 417.337 206.962 416.865 207.17C416.393 207.378 415.875 207.482 415.311 207.482C414.735 207.482 414.207 207.376 413.727 207.164C413.247 206.948 412.831 206.652 412.479 206.276C412.127 205.896 411.855 205.458 411.663 204.962C411.471 204.466 411.375 203.936 411.375 203.372C411.375 202.812 411.471 202.284 411.663 201.788C411.855 201.292 412.127 200.856 412.479 200.48C412.831 200.104 413.247 199.81 413.727 199.598C414.207 199.382 414.735 199.274 415.311 199.274C415.703 199.274 416.061 199.318 416.385 199.406C416.713 199.49 417.007 199.61 417.267 199.766C417.531 199.918 417.765 200.092 417.969 200.288C418.173 200.48 418.349 200.684 418.497 200.9L417.567 201.398C417.327 201.066 417.019 200.792 416.643 200.576C416.267 200.36 415.823 200.252 415.311 200.252C414.895 200.252 414.511 200.334 414.159 200.498C413.807 200.662 413.501 200.888 413.241 201.176C412.985 201.464 412.787 201.796 412.647 202.172C412.507 202.548 412.437 202.948 412.437 203.372C412.437 203.796 412.507 204.198 412.647 204.578C412.787 204.954 412.985 205.288 413.241 205.58C413.501 205.868 413.807 206.094 414.159 206.258C414.511 206.422 414.895 206.504 415.311 206.504C415.707 206.504 416.069 206.436 416.397 206.3C416.725 206.164 417.011 205.976 417.255 205.736C417.499 205.496 417.691 205.216 417.831 204.896C417.971 204.576 418.049 204.232 418.065 203.864H415.203V203.036ZM420.39 199.418H423.156C423.584 199.418 423.972 199.508 424.32 199.688C424.672 199.864 424.952 200.124 425.16 200.468C425.372 200.808 425.478 201.224 425.478 201.716C425.478 202.204 425.38 202.608 425.184 202.928C424.992 203.248 424.76 203.49 424.488 203.654C424.216 203.814 423.964 203.902 423.732 203.918L425.694 207.338H424.53L422.694 203.99H421.416V207.338H420.39V199.418ZM421.416 203.228H422.796C423.268 203.228 423.658 203.11 423.966 202.874C424.274 202.638 424.428 202.26 424.428 201.74C424.428 201.22 424.274 200.846 423.966 200.618C423.662 200.39 423.274 200.276 422.802 200.276H421.416V203.228ZM427.137 199.418H428.169V207.338H427.137V199.418ZM429.848 199.418H430.874V206.408H433.988V207.338H429.848V199.418ZM435.344 199.418H436.37V206.408H439.484V207.338H435.344V199.418Z" fill="black"/>
<path d="M70.4435 329.296H71.7049L74.6708 336.54H74.7731L77.739 329.296H79.0004V338.023H78.0117V331.393H77.9265L75.1992 338.023H74.2447L71.5174 331.393H71.4322V338.023H70.4435V329.296ZM82.9091 338.177C82.4943 338.177 82.1179 338.099 81.7798 337.942C81.4418 337.783 81.1733 337.555 80.9744 337.256C80.7756 336.955 80.6761 336.592 80.6761 336.165C80.6761 335.79 80.75 335.487 80.8977 335.254C81.0455 335.018 81.2429 334.833 81.4901 334.7C81.7372 334.566 82.0099 334.467 82.3082 334.401C82.6094 334.333 82.9119 334.279 83.2159 334.239C83.6136 334.188 83.9361 334.15 84.1832 334.124C84.4332 334.096 84.6151 334.049 84.7287 333.984C84.8452 333.918 84.9034 333.805 84.9034 333.643V333.609C84.9034 333.188 84.7884 332.862 84.5582 332.629C84.331 332.396 83.9858 332.279 83.5227 332.279C83.0426 332.279 82.6662 332.384 82.3935 332.594C82.1207 332.805 81.929 333.029 81.8182 333.268L80.8636 332.927C81.0341 332.529 81.2614 332.219 81.5455 331.998C81.8324 331.773 82.1449 331.617 82.483 331.529C82.8239 331.438 83.1591 331.393 83.4886 331.393C83.6989 331.393 83.9403 331.418 84.2131 331.469C84.4886 331.518 84.7543 331.619 85.0099 331.772C85.2685 331.925 85.483 332.157 85.6534 332.467C85.8239 332.776 85.9091 333.191 85.9091 333.711V338.023H84.9034V337.137H84.8523C84.7841 337.279 84.6705 337.431 84.5114 337.593C84.3523 337.755 84.1406 337.893 83.8764 338.006C83.6122 338.12 83.2898 338.177 82.9091 338.177ZM83.0625 337.273C83.4602 337.273 83.7955 337.195 84.0682 337.039C84.3438 336.883 84.5511 336.681 84.6903 336.434C84.8324 336.187 84.9034 335.927 84.9034 335.654V334.734C84.8608 334.785 84.767 334.832 84.6222 334.874C84.4801 334.914 84.3153 334.95 84.1278 334.981C83.9432 335.009 83.7628 335.035 83.5866 335.058C83.4134 335.077 83.2727 335.094 83.1648 335.109C82.9034 335.143 82.6591 335.198 82.4318 335.275C82.2074 335.349 82.0256 335.461 81.8864 335.612C81.75 335.759 81.6818 335.961 81.6818 336.217C81.6818 336.566 81.8111 336.83 82.0696 337.009C82.331 337.185 82.6619 337.273 83.0625 337.273ZM90.4038 338.16C89.7901 338.16 89.2617 338.015 88.8185 337.725C88.3754 337.435 88.0344 337.036 87.7958 336.528C87.5572 336.019 87.4379 335.438 87.4379 334.785C87.4379 334.12 87.56 333.533 87.8043 333.025C88.0515 332.513 88.3952 332.114 88.8356 331.827C89.2788 331.538 89.7958 331.393 90.3867 331.393C90.8469 331.393 91.2617 331.478 91.631 331.648C92.0004 331.819 92.3029 332.058 92.5387 332.364C92.7745 332.671 92.9208 333.029 92.9776 333.438H91.9719C91.8952 333.14 91.7248 332.876 91.4606 332.646C91.1992 332.413 90.8469 332.296 90.4038 332.296C90.0117 332.296 89.668 332.398 89.3725 332.603C89.0799 332.805 88.8512 333.09 88.6864 333.46C88.5245 333.826 88.4435 334.256 88.4435 334.751C88.4435 335.256 88.5231 335.697 88.6822 336.072C88.8441 336.447 89.0714 336.738 89.364 336.945C89.6594 337.153 90.006 337.256 90.4038 337.256C90.6651 337.256 90.9023 337.211 91.1154 337.12C91.3285 337.029 91.5089 336.898 91.6566 336.728C91.8043 336.558 91.9094 336.353 91.9719 336.114H92.9776C92.9208 336.501 92.7802 336.849 92.5558 337.158C92.3342 337.465 92.0401 337.71 91.6737 337.891C91.31 338.07 90.8867 338.16 90.4038 338.16ZM95.4535 329.296V338.023H94.4478V329.296H95.4535ZM99.2216 338.177C98.8068 338.177 98.4304 338.099 98.0923 337.942C97.7543 337.783 97.4858 337.555 97.2869 337.256C97.0881 336.955 96.9886 336.592 96.9886 336.165C96.9886 335.79 97.0625 335.487 97.2102 335.254C97.358 335.018 97.5554 334.833 97.8026 334.7C98.0497 334.566 98.3224 334.467 98.6207 334.401C98.9219 334.333 99.2244 334.279 99.5284 334.239C99.9261 334.188 100.249 334.15 100.496 334.124C100.746 334.096 100.928 334.049 101.041 333.984C101.158 333.918 101.216 333.805 101.216 333.643V333.609C101.216 333.188 101.101 332.862 100.871 332.629C100.643 332.396 100.298 332.279 99.8352 332.279C99.3551 332.279 98.9787 332.384 98.706 332.594C98.4332 332.805 98.2415 333.029 98.1307 333.268L97.1761 332.927C97.3466 332.529 97.5739 332.219 97.858 331.998C98.1449 331.773 98.4574 331.617 98.7955 331.529C99.1364 331.438 99.4716 331.393 99.8011 331.393C100.011 331.393 100.253 331.418 100.526 331.469C100.801 331.518 101.067 331.619 101.322 331.772C101.581 331.925 101.795 332.157 101.966 332.467C102.136 332.776 102.222 333.191 102.222 333.711V338.023H101.216V337.137H101.165C101.097 337.279 100.983 337.431 100.824 337.593C100.665 337.755 100.453 337.893 100.189 338.006C99.9247 338.12 99.6023 338.177 99.2216 338.177ZM99.375 337.273C99.7727 337.273 100.108 337.195 100.381 337.039C100.656 336.883 100.864 336.681 101.003 336.434C101.145 336.187 101.216 335.927 101.216 335.654V334.734C101.173 334.785 101.08 334.832 100.935 334.874C100.793 334.914 100.628 334.95 100.44 334.981C100.256 335.009 100.075 335.035 99.8991 335.058C99.7259 335.077 99.5852 335.094 99.4773 335.109C99.2159 335.143 98.9716 335.198 98.7443 335.275C98.5199 335.349 98.3381 335.461 98.1989 335.612C98.0625 335.759 97.9943 335.961 97.9943 336.217C97.9943 336.566 98.1236 336.83 98.3821 337.009C98.6435 337.185 98.9744 337.273 99.375 337.273ZM108.182 335.347V331.478H109.188V338.023H108.182V336.915H108.114C107.961 337.248 107.722 337.531 107.398 337.763C107.074 337.994 106.665 338.109 106.171 338.109C105.762 338.109 105.398 338.019 105.08 337.84C104.762 337.658 104.512 337.386 104.33 337.022C104.148 336.656 104.057 336.194 104.057 335.637V331.478H105.063V335.569C105.063 336.046 105.196 336.427 105.463 336.711C105.733 336.995 106.077 337.137 106.495 337.137C106.745 337.137 106.999 337.073 107.257 336.945C107.519 336.817 107.738 336.621 107.914 336.357C108.093 336.093 108.182 335.756 108.182 335.347ZM111.03 338.023V331.478H112.001V332.467H112.07C112.189 332.143 112.405 331.88 112.717 331.678C113.03 331.477 113.382 331.376 113.774 331.376C113.848 331.376 113.94 331.377 114.051 331.38C114.162 331.383 114.246 331.387 114.303 331.393V332.415C114.268 332.407 114.19 332.394 114.068 332.377C113.949 332.357 113.822 332.347 113.689 332.347C113.371 332.347 113.087 332.414 112.837 332.548C112.589 332.678 112.393 332.86 112.249 333.093C112.107 333.323 112.036 333.586 112.036 333.881V338.023H111.03ZM115.495 338.023V331.478H116.5V338.023H115.495ZM116.006 330.387C115.81 330.387 115.641 330.32 115.499 330.187C115.36 330.053 115.29 329.893 115.29 329.705C115.29 329.518 115.36 329.357 115.499 329.224C115.641 329.09 115.81 329.023 116.006 329.023C116.202 329.023 116.37 329.09 116.509 329.224C116.651 329.357 116.722 329.518 116.722 329.705C116.722 329.893 116.651 330.053 116.509 330.187C116.37 330.32 116.202 330.387 116.006 330.387ZM119.348 334.086V338.023H118.342V331.478H119.314V332.501H119.399C119.553 332.168 119.786 331.901 120.098 331.7C120.411 331.495 120.814 331.393 121.308 331.393C121.751 331.393 122.139 331.484 122.472 331.665C122.804 331.844 123.063 332.117 123.247 332.484C123.432 332.847 123.524 333.308 123.524 333.864V338.023H122.518V333.933C122.518 333.418 122.385 333.018 122.118 332.731C121.851 332.441 121.484 332.296 121.018 332.296C120.697 332.296 120.411 332.366 120.158 332.505C119.908 332.644 119.71 332.847 119.565 333.114C119.42 333.381 119.348 333.705 119.348 334.086ZM131.566 338.023H128.873V329.296H131.686C132.532 329.296 133.257 329.471 133.859 329.82C134.461 330.167 134.923 330.665 135.244 331.316C135.565 331.964 135.725 332.739 135.725 333.643C135.725 334.552 135.564 335.335 135.24 335.991C134.916 336.644 134.444 337.147 133.825 337.499C133.206 337.849 132.453 338.023 131.566 338.023ZM129.93 337.086H131.498C132.22 337.086 132.818 336.947 133.292 336.668C133.767 336.39 134.12 335.994 134.353 335.479C134.586 334.965 134.703 334.353 134.703 333.643C134.703 332.938 134.588 332.332 134.358 331.823C134.127 331.312 133.784 330.92 133.326 330.647C132.869 330.371 132.299 330.234 131.618 330.234H129.93V337.086ZM137.362 338.023V331.478H138.333V332.467H138.402C138.521 332.143 138.737 331.88 139.049 331.678C139.362 331.477 139.714 331.376 140.106 331.376C140.18 331.376 140.272 331.377 140.383 331.38C140.494 331.383 140.578 331.387 140.635 331.393V332.415C140.6 332.407 140.522 332.394 140.4 332.377C140.281 332.357 140.154 332.347 140.021 332.347C139.703 332.347 139.419 332.414 139.169 332.548C138.922 332.678 138.725 332.86 138.581 333.093C138.439 333.323 138.368 333.586 138.368 333.881V338.023H137.362Z" fill="black"/>
<rect x="455.441" y="111.379" width="175.918" height="215.562" transform="rotate(90 455.441 111.379)" stroke="black"/>
<rect x="565.797" y="111.379" width="175.918" height="96.7012" transform="rotate(90 565.797 111.379)" stroke="black" stroke-dasharray="2 2"/>
<rect x="153.736" y="111.379" width="175.918" height="96.7012" transform="rotate(90 153.736 111.379)" stroke="black"/>
<path fill-rule="evenodd" clip-rule="evenodd" d="M444.736 98.2343C453.666 85.7406 455.941 82.5569 455.941 71.4248C455.941 54.6912 442.376 41.126 425.643 41.126C408.909 41.126 395.344 54.6912 395.344 71.4248C395.344 82.7701 397.344 85.5678 406.719 98.6804C411.171 104.908 417.287 113.462 425.643 126.364C434.064 113.165 440.242 104.521 444.736 98.2343ZM425.642 79.1279C429.671 79.1279 432.937 75.8621 432.937 71.8335C432.937 67.8049 429.671 64.5391 425.642 64.5391C421.613 64.5391 418.348 67.8049 418.348 71.8335C418.348 75.8621 421.613 79.1279 425.642 79.1279Z" fill="#DD4200"/>
<circle cx="664.508" cy="262.265" r="47.7104" transform="rotate(90 664.508 262.265)" stroke="black"/>
<path d="M22.7891 345.634V402.555H1.2002V1.41992L22.7891 1.41992V323.045V323.545H23.2891L509.947 323.545H510.447V323.045V287.345H524.447V323.045V323.545H524.947H712.219V345.134L23.2891 345.134H22.7891V345.634Z" stroke="black"/>
<line x1="395.844" y1="110.879" x2="395.844" y2="287.797" stroke="black" stroke-dasharray="2 2"/>
</svg>
